<svg xmlns="http://www.w3.org/2000/svg" viewBox="0 0 286.71 229.68"><defs><style>.a{fill:#485f7f;}.b{fill:none;}</style></defs><path class="a" d="M74.17,71.87q.1.19,0,.24t-.09.24a2.07,2.07,0,0,0-.78.1.45.45,0,0,0,.34.24.53.53,0,0,1,.34.24c-.07.13-.19.18-.39.15s-.29.08-.29.34H72a.79.79,0,0,0-.87.63,10.85,10.85,0,0,0-1.4-.1H68.56a.26.26,0,0,0,0,.24s.11.11,0,.24q-3.28,0-6.87.29c-2.39.19-4.61.39-6.68.58-.06.64-.16,1.37-.29,2.18s-.27,1.63-.43,2.46-.34,1.63-.54,2.37a17.91,17.91,0,0,1-.58,1.89,1.31,1.31,0,0,1,0,.68,2.65,2.65,0,0,1-.29.72,2.72,2.72,0,0,0-.29.73,1,1,0,0,0,.1.77,11.34,11.34,0,0,1-1.17,3.29,20.33,20.33,0,0,0-1.35,3.1,11,11,0,0,0-.34,2.28,5.22,5.22,0,0,1-.54,2.08,17,17,0,0,0-1,2.37,7.87,7.87,0,0,1-1.16,2.27,12,12,0,0,1-1,3.19,16.89,16.89,0,0,0-1.06,2.91c.12-.2.25-.23.38-.1a.65.65,0,0,0,.49.19c.13-.32.34-.45.63-.38a1.89,1.89,0,0,0,.82,0,.79.79,0,0,1,0,.43.39.39,0,0,0,.14.34,5.86,5.86,0,0,0-1.16.39.92.92,0,0,0,.92-.1,1.59,1.59,0,0,1,.92-.29,4.94,4.94,0,0,1-1.79,1.07,16,16,0,0,1-2.18.48,1.55,1.55,0,0,0-.44,1.26,1,1,0,0,1-.62,1.06,1.21,1.21,0,0,1,0,1,2.7,2.7,0,0,1-.54,1c0,.06,0,.09.1.09a.09.09,0,0,1,.1.08v0a13.21,13.21,0,0,0-1.26,3.15c-.33,1.19-.68,2.37-1.07,3.53a2.62,2.62,0,0,1-.34.48c-.15.19-.3.38-.43.58a.72.72,0,0,0,0,.54.8.8,0,0,1,0,.53l-.39.48a5.41,5.41,0,0,0-.34,1.69,4.23,4.23,0,0,1-.54,1.8q-.09.19-.33.87c-.17.45-.31.84-.44,1.16-.26.77-.53,1.5-.82,2.17s-.6,1.37-.92,2.09a30.62,30.62,0,0,0-2.23,5,34.61,34.61,0,0,1-2,4.8,18.73,18.73,0,0,1-2,3.33c-.77,1-1.52,2-2.23,3.15a9.39,9.39,0,0,0-1.88,1.79c-.55.67-1.13,1.35-1.75,2a10.73,10.73,0,0,1-2,1.74,5.87,5.87,0,0,1-2.52.92,14,14,0,0,0-2.9.92,5.89,5.89,0,0,1-3.1.43l-.39.19a.51.51,0,0,0-.34-.19.58.58,0,0,1-.34-.19c-.13.13-.19.14-.19,0s-.06-.09-.19,0a17.93,17.93,0,0,1-7-3.34,15.48,15.48,0,0,1-4.35-5.66c.06,0,.09,0,.09,0s0,0,.1,0a.43.43,0,0,1-.1-.48c.07-.19,0-.32-.29-.39a2.3,2.3,0,0,0,0-2.22A4.15,4.15,0,0,1,0,143.72c-.07-.13,0-.19,0-.19a.35.35,0,0,1,.25.1,1.65,1.65,0,0,1-.2-.78A1.8,1.8,0,0,0,0,142.2c.13-.07.18,0,.15.14s0,.21.14.15.1-.13.1-.39a.6.6,0,0,1,.09.39A2.1,2.1,0,0,0,1,140.94c0-.71.23-1.16.68-1.35A1.54,1.54,0,0,1,1.94,138a2.64,2.64,0,0,0,.58-1.55,16.45,16.45,0,0,0,2-2.76c.58-1,1.2-2,1.84-2.95,1.23-1.29,2.42-2.64,3.59-4.06A16.13,16.13,0,0,1,14,123.14a34.41,34.41,0,0,1,6.15-4.74c2.23-1.36,4.37-2.81,6.44-4.35a13.73,13.73,0,0,0,1.84-.92q.87-.54,1.65-1.11a26,26,0,0,1,4-1.5c1.42-.42,2.78-.89,4.07-1.4,0,.13,0,.17-.1.14s-.09,0-.09,0c.19.13.29.1.29-.1s.09-.25.29-.19v.39h.29a1.7,1.7,0,0,0,.34-.54,1.55,1.55,0,0,1,.34-.53c-.07-.13-.13-.16-.2-.1a.24.24,0,0,1-.29,0c.13-.25.24-.49.34-.72a1.83,1.83,0,0,0,.15-.73c0-.06.09-.09.29-.09a1.12,1.12,0,0,0,.09-.44c0-.16.1-.27.29-.34-.13,0-.19,0-.19-.09s-.06-.1-.19-.1-.18-.07-.15,0a.37.37,0,0,1,0,.29c-.19.06-.24,0-.14-.15s.08-.24,0-.24a.89.89,0,0,0-.24.53,1,1,0,0,1-.24.54,6.3,6.3,0,0,1,.82-2.86,5.61,5.61,0,0,0,.73-3,34.8,34.8,0,0,0,1.94-4.21,16.69,16.69,0,0,0,1-4.58c.26-.71.54-1.44.83-2.18a3.43,3.43,0,0,0,.24-2c-.07-.12,0-.17.14-.14s.21-.05.15-.24-.05-.1-.15-.1-.14,0-.14.1-.13-.15,0-.24a.25.25,0,0,0,.1-.34h0a.38.38,0,0,0,.29-.1c.12.13.19.23.19.29.13-.13.11-.27-.05-.43s-.31-.18-.43-.05a2.29,2.29,0,0,1,.67-1.26,6.62,6.62,0,0,1,.2-1.6,14.73,14.73,0,0,1,.48-1.6c.2-.51.37-1,.54-1.45a3.8,3.8,0,0,0,.24-1.25.49.49,0,0,0,.24-.49c0-.19.08-.32.34-.39a3.82,3.82,0,0,1-.15-.67.54.54,0,0,1,.34-.58.46.46,0,0,1-.09-.49,2.92,2.92,0,0,1,.29-.48,19.69,19.69,0,0,0-4.84.48c-1.87.39-3.53.72-5,1a3.06,3.06,0,0,1-1,.14,1,1,0,0,1-.34-.1.33.33,0,0,0-.24,0l-.82.34a2.06,2.06,0,0,0-.59.34,1.18,1.18,0,0,1-.77.24.92.92,0,0,1-.87-.92c-.07-.55-.26-.88-.58-1a2.26,2.26,0,0,0,0-1.21.75.75,0,0,1,.34-.92.7.7,0,0,1-.2-.49.55.55,0,0,0-.29-.48c.58-.26.94-.4,1.07-.44a.65.65,0,0,1,.34,0,.5.5,0,0,0,.34,0,9.79,9.79,0,0,0,1.06-.43c-.06-.07.23-.16.87-.29v.1h.2v-.2a3.11,3.11,0,0,0,1-.19.62.62,0,0,0,.63,0c.23-.1.37-.08.44,0,.13-.2.24-.26.34-.2s.17,0,.24-.19a1.29,1.29,0,0,1,.48,0c.07,0,.16,0,.29-.24s.26-.13.2,0,0,.19.09.19a1.14,1.14,0,0,1,.34-.19,2.39,2.39,0,0,1,.54-.15h.58c2.19-.45,4.65-.87,7.4-1.25s5.57-.64,8.47-.77a65,65,0,0,1,8.71.2,35.89,35.89,0,0,1,8.13,1.65.37.37,0,0,1-.44.09.37.37,0,0,0-.43.1.44.44,0,0,0,.43.14A.27.27,0,0,1,74.17,71.87ZM.29,143c.13.13.21.11.24-.05s0-.21-.14-.14S.35,143,.29,143Zm.39-1.45c-.13.13-.16.1-.1-.1a1.64,1.64,0,0,0,.1-.38c.06-.13.08-.1,0,.09-1.2,0-2.18-1-2.18.18s1,2.18,2.18.18Zm.09-.68c-.12-.06-.14-.16,0-.29a.73.73,0,0,0,.14-.38c.13,0,.18.11.15.34s-.16.3-.29.3ZM2,137.36c-.13-.13-.15-.24-.05-.34a.48.48,0,0,0,.14-.34c.13.07.15.16.05.29A.62.62,0,0,0,2,137.36Zm34.85-22.05a2,2,0,0,1,.34-1.16.76.76,0,0,0,0-1,68,68,0,0,0-9.73,5.42,106,106,0,0,0-9,6.67c0,.06,0,.1.05.1s0,0,0,.09a41.42,41.42,0,0,0-5.22,4.5,25.16,25.16,0,0,0-4.17,5.66A2.36,2.36,0,0,0,7.94,137a5.7,5.7,0,0,1-.87,1.7,8.56,8.56,0,0,1-1,2.17,2.24,2.24,0,0,0-.2,2.18,1.62,1.62,0,0,0-.38-.09c-.13.71-.25,1.46-.34,2.27a7.85,7.85,0,0,0,0,2.27,5.12,5.12,0,0,0,.53,4.31,7.21,7.21,0,0,0,3.15,2.76,6.88,6.88,0,0,0,3.53-.82,7.43,7.43,0,0,1,3.44-.92.26.26,0,0,0-.1.2c0,.06,0,.09.1.09a1.29,1.29,0,0,1,.82-.82.69.69,0,0,0,.53-.82h0a1.18,1.18,0,0,0,.92-.53c.16-.29.34-.6.54-.92a.25.25,0,0,0,.2.29.14.14,0,0,0,.09,0,3.85,3.85,0,0,1,1-1.65c.55-.58,1.08-1.09,1.6-1.54-.26,0-.39,0-.39-.1a2.33,2.33,0,0,0,.34-.2.56.56,0,0,1,.44,0,.52.52,0,0,1,.1-.38c-.13,0-.2,0-.2-.1l.29-.39a.77.77,0,0,0,.29.1.69.69,0,0,1-.05.24.13.13,0,0,0,.15.15l.39-.39a2.54,2.54,0,0,0,0-.87.61.61,0,0,1,.43-.68c0,.13-.06.2-.19.2s-.16.09-.1.29h.58a1,1,0,0,0,.15-.25c0-.09.11-.11.24,0l-1,1.35a14.2,14.2,0,0,1-1,1.26c0-.13-.1-.19-.29-.19s-.29,0-.29.09.23.15.29,0,.16-.08.29.05a1.87,1.87,0,0,0-.29.34,1.66,1.66,0,0,0-.19.43.32.32,0,0,0-.39.1c.13,0,.19,0,.19-.1-.77,1-1.51,2-2.22,2.81s-1.52,1.71-2.42,2.61a5.62,5.62,0,0,0,2.61-2.18,10.29,10.29,0,0,1,2.32-2.56,6.84,6.84,0,0,1-1.45,2,10.07,10.07,0,0,0-1.55,1.89,1.72,1.72,0,0,1,.49.19,5,5,0,0,1,1-1.11c.49-.42.6-.76.34-1a1.48,1.48,0,0,1,.49-.59,1.83,1.83,0,0,0,.48-.48c0,.13,0,.19.1.19a5.06,5.06,0,0,0,1.26-1.35A6.4,6.4,0,0,1,24,147.05a2.38,2.38,0,0,1,.88-1.5,1.61,1.61,0,0,0,.67-1.31c-.25-.13-.4-.09-.43.1s-.18.26-.44.19a2.15,2.15,0,0,0,.49-.77,2.15,2.15,0,0,1,.68-.87.18.18,0,0,1-.05.26s0,0-.05,0-.13.13,0,.19c0-.19,0-.26.1-.19a1.32,1.32,0,0,1,.19.29,18.82,18.82,0,0,0,1.31-2.57l1.11-2.75c-.19,0-.29,0-.29-.1v-.29h.58a.81.81,0,0,0,0-.63c-.09-.16,0-.31.25-.44.06-.13,0-.17-.15-.14s-.21,0-.14-.15a4.61,4.61,0,0,0,1.06-1.49,4.36,4.36,0,0,0,.49-1.8.2.2,0,0,0,0,.25c0,.09,0,.11-.15,0s-.06-.16,0-.29,0-.19-.09-.19-.05.16-.15.1a.3.3,0,0,0-.34,0,1,1,0,0,1-.39.72c-.25.23-.22.37.1.44a8.91,8.91,0,0,0-1.18,2.7,6.71,6.71,0,0,1-1.35,2.47c0,.77-.26,1.26-.78,1.45.13-.19.29-.47.49-.82s.22-.6.09-.73A78,78,0,0,0,30.16,130,58.86,58.86,0,0,1,34,121a.45.45,0,0,0,0,.39.39.39,0,0,1,0,.39c-.19,0-.3.11-.34.33a4.86,4.86,0,0,0,0,.54.19.19,0,0,0,.2,0s.06-.11.19,0a.63.63,0,0,1-.19.48c0-.19-.07-.29-.2-.29a1.59,1.59,0,0,0-.38,1,2.66,2.66,0,0,1-.2,1h.1c.19.06.31,0,.34-.1a.22.22,0,0,1,.24-.19l-.39.48v.1h-.09a.87.87,0,0,1-.59.48.45.45,0,0,1-.29.49c.2,0,.23.06.1.19q.68-.39.78,0l.67-2c-.06,0-.09.06-.09.19-.13-.06-.15-.11,0-.14s.11-.08,0-.15H34c.39-1.29.79-2.51,1.21-3.68s.83-2.38,1.21-3.67c-.19,0-.3,0-.33-.1a.6.6,0,0,0-.25-.19.21.21,0,0,0,0,.24c0,.1,0,.14-.15.14H35.5a1,1,0,0,1,.29-.77,2.47,2.47,0,0,0,.48-.68c.13-.06.23-.06.29,0a.59.59,0,0,0,.33-.17Zm-24.8,40.35a2.24,2.24,0,0,0,1.7-.24,3.31,3.31,0,0,1,1.59-.53c-.32-.2-.82-.15-1.5.14a11.08,11.08,0,0,1-1.75.63Zm4.75-3.29h-.2v.19h.2Zm.77-.29c-.32.13-.48.22-.48.29.36.13.52,0,.52-.29Zm.58,1.55a.88.88,0,0,1,.29-.44.85.85,0,0,0,.29-.43,1.18,1.18,0,0,0-.72.38,1.81,1.81,0,0,1-.73.49c-.07.06-.1.22-.1.48.39.07.55,0,.49-.29s.13-.32.52-.19ZM17.42,152a.08.08,0,0,0,.09-.07v0h-.19V152Zm1.75-32a1.2,1.2,0,0,1-.38,0c-.13,0-.2,0-.2.15a.27.27,0,0,0,.34.14A.21.21,0,0,0,19.17,120ZM19,150.53c-.07.13-.13.19-.2.19s-.09.07-.09.2a.33.33,0,0,0,.29-.15A.18.18,0,0,0,19,150.53Zm.19,1.84h.29a.26.26,0,0,0-.1.19c0,.07-.06.1-.19.1Zm.11-32.81a.54.54,0,0,1-.1.39c.26.06.41,0,.44-.15a.8.8,0,0,1,.24-.43c.2.06.32.06.39,0a.59.59,0,0,1,.39-.1.31.31,0,0,0,.09-.39c-.06-.13,0-.13.2,0v-.29A1,1,0,0,0,20,119a1.46,1.46,0,0,1-.76.58Zm.18,30.58c.13.07.19,0,.19-.14s-.06-.21-.19-.15Zm1.55.39c.13.07.26,0,.39-.14s.09-.24-.1-.25a.26.26,0,0,0-.1.2.43.43,0,0,1-.22.19ZM21.6,118c-.07.13-.15.2-.25.2a.47.47,0,0,0-.34.19c.13.06.2.14.2.24s.06.15.19.15a3,3,0,0,1,1.84-1.17,2.62,2.62,0,0,1,.87-.72,5,5,0,0,0,1-.63c.13-.13.15-.22.05-.29s-.08-.1.05-.1.16-.13.09,0,0,.2.1.2a7.61,7.61,0,0,1,2.47-1.6,3.63,3.63,0,0,0,2-1.59,25.06,25.06,0,0,0-2.75,1.59c-.87.59-1.8,1.08-2.76,1.6q-.11.2.09.24c.13,0,.13.08,0,.14a4.85,4.85,0,0,0-1.59.63c-.62.36-.92.73-.92,1.12-.2.06-.26,0-.2-.1S21.72,118,21.6,118Zm-.2,3.87v.1h-.1v.19h.1v-.09h.1v-.2Zm.77-.58c-.13,0-.19.07-.19.2,0-.07.05-.08.15,0s.11-.06,0-.19Zm.57,26.43c-.06-.46.05-.75.34-.88l.92-.38a10,10,0,0,1-1,1.06,5.17,5.17,0,0,0-.92,1.16.44.44,0,0,1,.1-.58,1.61,1.61,0,0,1,.56-.37Zm-.48-1.07a.17.17,0,0,0-.15-.19h0c0,.14.06.2.19.2Zm.1-.87c-.13.13-.15.1-.05-.1s.21-.25.34-.19,0,.18-.15.15-.21,0-.14.15Zm.49-24.68a48.59,48.59,0,0,1,6-4.06c2.13-1.23,4.2-2.48,6.2-3.77a1.28,1.28,0,0,1-.87-.2,7.71,7.71,0,0,1-2.42,1.65,14.88,14.88,0,0,0-2.52,1.35.09.09,0,0,0,.08.1h0c.06,0,.1,0,.1.09s-.2,0-.2.29a.24.24,0,0,0-.33-.06l-.06.06a.24.24,0,0,1-.32.06l-.06-.06a17.57,17.57,0,0,0-2.33,1.7,11.76,11.76,0,0,1-2.42,1.59q.11.39-.24.39a.72.72,0,0,0-.53.19c0,.26-.23.45-.68.58a1.43,1.43,0,0,1,.58.11Zm1,25.16v.2a.26.26,0,0,0-.19-.1v-.1a.52.52,0,0,1-.14-.19c0-.06-.12-.06-.25,0,0-.13.07-.18.2-.14h.38c0,.07,0,.1-.14.1s-.11.07-.05.19Zm.3-3a.09.09,0,0,0-.1.08v0c0,.07-.07.1-.19.1.05-.19.14-.25.34-.19Zm1,.29c.13,0,.13,0,0,.1a.18.18,0,0,0-.11.24.08.08,0,0,0,0,.05c-.33-.13-.5-.11-.54.05a.83.83,0,0,1-.24.44q-.48-.1,0-.39c.32-.2.32-.32,0-.39,0-.13.08-.16.24-.1s.21,0,.15-.19a.22.22,0,0,1,.24.19c.06.14.14.14.25,0Zm-.58-.77v.1s-.05,0-.05.09h-.1v-.19ZM26,144a.43.43,0,0,1,.1-.29,1.1,1.1,0,0,0-.58.39q.19.09.24,0C25.82,144,25.9,144,26,144Zm-.19-2.9h.29a.25.25,0,0,1-.2.29.14.14,0,0,1-.09,0Zm.2,1.74c-.07-.19,0-.31.09-.34s.16-.14.1-.34a.33.33,0,0,1,.24,0,.21.21,0,0,0,.15.05c-.23.39-.43.58-.59.58Zm0-10.94h.19v.1s-.05,0-.05.1H26Zm3.68,1.75a.54.54,0,0,1,.09.39c-.06,0-.09,0-.09,0s-.07-.05-.2-.05c.16-.18.23-.28.23-.34Zm.87-.78a7.3,7.3,0,0,1,.58-1.11c.26-.42.26-.75,0-1-.13.33-.23.55-.29.68a1.59,1.59,0,0,0-.1.68.22.22,0,0,1-.24-.15.22.22,0,0,0-.24-.14.66.66,0,0,0-.29.87.34.34,0,0,0,.19-.34.47.47,0,0,1,.1-.34.38.38,0,0,0,.1.29,1.81,1.81,0,0,1,.19.29,1.41,1.41,0,0,1-.29,0c-.13,0-.16,0-.1.14s.07.16.2.1.22-.15.22,0Zm-.48-19.74a.31.31,0,0,0,.1-.24.31.31,0,0,1,.1-.24c-.28.08-.36.24-.17.43ZM31,112c0,.25-.2.45-.58.58a.21.21,0,0,1,0,.24c0,.09,0,.08.25,0l.33-.19a.75.75,0,0,1,.44-.1.28.28,0,0,0,0-.29c0-.13,0-.16.05-.1s.19,0,.19-.09a.53.53,0,0,0-.39,0A2,2,0,0,1,31,112Zm.18,17.51a2.62,2.62,0,0,0-.24.34c-.1.16-.05.24.14.24s.12-.09.15-.29,0-.27-.06-.27Zm0,4.65c.13,0,.16-.07.1-.19H31v.38a.18.18,0,0,1,.17-.17Zm.68-4.55a1,1,0,0,1,.24-.53.94.94,0,0,0,.15-.63c-.13-.06-.2,0-.2.14s-.06.22-.19.15a.38.38,0,0,1,.1-.29c.06-.06,0-.1-.1-.1s-.13.15-.19,0a.28.28,0,0,0-.2-.15c0,.26-.06.43-.19.49s-.16.19-.1.39.32.13.39,0a.2.2,0,0,1,.24-.13l.05,0c.06.19,0,.29-.1.29a.17.17,0,0,0-.19.15v0c.18.07.28.11.28.17Zm.3-17.9c0,.06-.07.09-.2.09s-.16.07-.09.2a.3.3,0,0,0,.34,0c.08-.13.07-.21-.06-.27Zm0,16.35a1.39,1.39,0,0,0,.53-.77,3.1,3.1,0,0,1,.44-.87.86.86,0,0,0-.58.63.67.67,0,0,1-.58.53.45.45,0,0,1,.05.34c0,.08,0,.16.12.16Zm.1-1.16c-.07-.13,0-.19.14-.19s.24-.07.24-.2a.52.52,0,0,1-.14-.19c0-.06-.11-.1-.24-.1a.62.62,0,0,0-.15.34.28.28,0,0,0,.13.36Zm.1-15h.2v-.1h-.2Zm.48,13a.26.26,0,0,0,.19-.1h-.09s-.06.09-.12.09Zm.39-13.65a.33.33,0,0,0-.29.15c-.06.09,0,.14.1.14s0-.17.1-.14.07,0,.07-.16Zm0,13h.29c-.07,0-.1,0-.1.1h-.19Zm.38-1c.07,0,.1,0,.1,0s0,0,.1,0c0,.26-.1.39-.29.39.06-.13.06-.21,0-.25s-.06-.07.07-.2Zm.1,3.49c.13.13.21.11.24,0s0-.24-.14-.24a.4.4,0,0,1-.12.23Zm.39-5.13c.13-.06.19,0,.19.14s-.06.18-.19,0Zm.1-1.26c.06-.13.09-.16.09-.1a.29.29,0,0,1-.09.2Zm.38.19c-.19.13-.24.23-.14.29a.68.68,0,0,1,.24.29c-.32,0-.48-.06-.48-.19v-.48s.1.08.36.08Zm0-1.45c.26,0,.29.16.1.49s-.16.48.1.48a.09.09,0,0,1-.08.1h0c-.06,0-.1,0-.1.09s-.19,0-.19-.09-.06-.16-.19-.1a.67.67,0,0,0,.14-.53.44.44,0,0,1,.22-.45Zm.68-.77c-.19,0-.27-.07-.24-.2s.11-.16.24-.09Zm-.09-.68a1.24,1.24,0,0,1,.29-.39.37.37,0,0,0,0-.48h.29c-.2.06-.28.22-.25.48s-.1.45-.35.38Zm1.16-5.13a1.24,1.24,0,0,1-.48.29,1.36,1.36,0,0,0-.49.29.39.39,0,0,0,.44,0,.38.38,0,0,1,.43,0,.41.41,0,0,1,.15-.25c.07-.19.06-.27-.07-.34Zm0-.19c-.26-.07-.45.06-.58.38a1.1,1.1,0,0,0,.56-.39Zm.12-39.88h-.2v-.1Zm0,46.75a.3.3,0,0,1,.1-.19h-.19v.19Zm.1-.39h-.19v.1h.19Zm.1-3,.1-.09h-.2v.09Zm.38,1.94c.07-.2,0-.29-.29-.29v.29Zm-.19-.49c.13,0,.24-.09.34-.29s.08-.32,0-.38l-.19.09a.31.31,0,0,0,.09.39.18.18,0,0,0-.23.08.17.17,0,0,0,0,.1Zm1.09-45.1a.67.67,0,0,0-.2,0,.71.71,0,0,1-.29,0q0-.2.15-.15c.1,0,.14,0,.14-.14-.64,0-.77,0-.38-.1a1.67,1.67,0,0,1,.77,0c-.13,0-.19,0-.19,0s.06,0,.19,0Zm.17,42.3a.83.83,0,0,1,0-.82.87.87,0,0,0,0-.83c-.2.39-.39.81-.58,1.26a1.47,1.47,0,0,0-.1,1.16,1.13,1.13,0,0,0,.29-.43.59.59,0,0,1,.29-.35Zm0-42.59a.31.31,0,0,0,.19,0,.39.39,0,0,1,.3,0,1,1,0,0,1-.49.1Zm.37,36.3c-.06-.07-.06-.23,0-.49a1,1,0,0,0,.15.25,2.12,2.12,0,0,1-.18.23Zm.39-1.07a.28.28,0,0,0-.15.34c0,.16,0,.21-.14.15v-.49ZM42.23,71c-.32.13-.79.31-1.4.53a1.43,1.43,0,0,1-1.5-.14,2,2,0,0,0,1.45-.19A2,2,0,0,1,42.23,71ZM46.1,91c0-.13-.07-.18-.2-.15s-.16,0-.09-.14c.12.13.19.13.19,0s-.07-.16-.19-.1q-1.65,4.45-3.35,9.49t-2.76,9.09a5.44,5.44,0,0,0,1.21-2.71A5.34,5.34,0,0,1,42,103.89a1.12,1.12,0,0,1,.15-1.35A5,5,0,0,0,43,101a1.71,1.71,0,0,0,.1-1c-.06-.32.1-.55.49-.68.38-1.35.77-2.76,1.16-4.21A36.57,36.57,0,0,1,46.1,91Zm-6,11c-.13,0-.13-.06,0-.19Zm.1-.58c-.07-.13,0-.18,0-.15s.15,0,.15-.14.15.06,0,.19-.1.22-.16.15ZM43.78,70.6c-.13.25-.3.35-.53.29a.71.71,0,0,0-.63.09.44.44,0,0,1,.48-.29A2.59,2.59,0,0,0,43.78,70.6Zm.78-.29c0,.25-.23.38-.68.38-.07-.25,0-.35.19-.29A.43.43,0,0,0,44.56,70.31ZM44.45,88c0,.13-.05.19-.14.19s-.15.1-.15.29c-.06-.06-.06-.18,0-.34S44.32,88,44.45,88Zm1-17.62c-.07.07-.29.1-.68.1,0,0,.23-.08.66-.08Zm.38,14.13c0,.13,0,.2-.1.2s-.13.06-.19.19l.29.29a.08.08,0,0,1,.07-.09h0a1.34,1.34,0,0,1,.1-.44c0-.14,0-.19-.21-.13Zm.48,5.62H46.1v.19l.19.1ZM52,70.7a.3.3,0,0,0,.1-.2h-.2v.2Zm2,1.06a.26.26,0,0,1-.1.2.63.63,0,0,1,.54-.15h.24Zm1.36-.09H55v.09h.39Zm1.06-1.36c-.06-.19-.24-.22-.53-.1s-.47.13-.53,0c0,.2.13.23.38.1a.63.63,0,0,1,.72,0Zm.1,1.26h-.2v.19h.2Zm.1-1.35a.29.29,0,0,1,.33,0c.1.06.18,0,.25-.1a.34.34,0,0,1-.34,0c-.06-.06-.14,0-.2.1Zm.77,1.45a20.06,20.06,0,0,1,3.1-.15,10.29,10.29,0,0,0,2.71-.24h-3a10,10,0,0,0-2.76.39Zm.77-1.55h.2v-.19h-.2Zm1.36-.19q-.39,0-.39.09a.18.18,0,0,1,.24,0c.13.07.19,0,.19-.09Zm.87,0c-.19,0-.29,0-.29.09.23,0,.33,0,.33-.09Zm.58-.2c-.13,0-.21,0-.24.1a.15.15,0,0,1-.15.1A.62.62,0,0,0,61,70Zm2.32.29c.07-.19-.06-.29-.38-.29,0,.2.09.27.42.27Zm.39,1.26a.38.38,0,0,0-.29.1c.13,0,.18,0,.14.1s0,.09.15.09ZM63.62,70h.29a.09.09,0,0,0,.1-.08v0a.4.4,0,0,1-.24-.05.2.2,0,0,0-.15,0Zm.49,1.25h-.2v.1h.2ZM64,70a1.44,1.44,0,0,1,.58.09V69.9H64.1Zm.48,1.35a.8.8,0,0,0,.59.19.67.67,0,0,0,.58-.29,5.65,5.65,0,0,1-1.16.13Zm1.26,0c-.13.19,0,.29.24.29s.44-.06.44-.19a2.15,2.15,0,0,1-.67-.07Zm3.87.49c-.13-.07-.19-.12-.19-.15s-.06,0-.19,0A3,3,0,0,1,68,71.58a1.94,1.94,0,0,0-1.26,0,6.73,6.73,0,0,0,1.4.24c.47,0,1,.05,1.48.05Zm-2.8-1.55h.09v-.2h-.1Zm1.64,0a.86.86,0,0,1-.63,0,.3.3,0,0,0-.43,0c.06.13.22.22.48.29a.48.48,0,0,0,.59-.26Zm.49.29h.29v-.2H69Zm.38.19a5.36,5.36,0,0,1,1.26.15,8.3,8.3,0,0,1,1.07.34,1.25,1.25,0,0,0-1.07-.54,2.79,2.79,0,0,1-1.26-.34Zm2.71.29h-.19v.2H72Zm1.26.49a.67.67,0,0,0-.48-.2,1.9,1.9,0,0,1-.58-.09c.06.13.22.19.48.19a1.21,1.21,0,0,1,.59.13Z" transform="translate(1.5)"/><path class="a" d="M101.16,112.73l1.25-1.36a1.4,1.4,0,0,1-.38.68,3.86,3.86,0,0,0-.49.58,1,1,0,0,1-.34,1.16,10.39,10.39,0,0,0-1,.87,1.28,1.28,0,0,1-.39.73,2.2,2.2,0,0,0-.48.53.72.72,0,0,1-.15.82c-.23.23-.4.28-.53.15a2.77,2.77,0,0,1-.73,1.3,8.93,8.93,0,0,1-1.21,1c.13.45,0,.64-.29.58a1.42,1.42,0,0,1,.1.58,20.4,20.4,0,0,0-1.75,2.47c-.71,1.13-1.26,2-1.64,2.47a2.24,2.24,0,0,0,.72-.54,10.39,10.39,0,0,0,.87-1c.29-.39.55-.78.78-1.16s.4-.68.53-.87a16.83,16.83,0,0,0,1.36-1.31,17.86,17.86,0,0,0,1.26-1.5,21.78,21.78,0,0,1,1.64-2.18c.58-.67,1.13-1.37,1.65-2.08a5.66,5.66,0,0,0,.73-1.4,1.94,1.94,0,0,1,.92-1.11,2.53,2.53,0,0,0,.19.48,1.42,1.42,0,0,1,.1.58,2.69,2.69,0,0,0-.63.63,4.88,4.88,0,0,0-.44.73c.13.13.13.32,0,.58l-.29.58c-.06.13,0,.19,0,.19a.18.18,0,0,1,.14.19c-.13-.06-.19,0-.19.29-.07,0-.1-.06-.1-.19V116a3.17,3.17,0,0,1-.39.34.65.65,0,0,0-.19.53c.13,0,.19-.07.19-.2s.1-.19.3-.19a.66.66,0,0,0,.09.39,1.18,1.18,0,0,0-.24.72v.83a20.31,20.31,0,0,1-1.65,2.46,7.14,7.14,0,0,0-1.26,2.67c0,.06.07.09.2.09a5.81,5.81,0,0,0-1,1.21,4,4,0,0,1-1.11,1.21v.48c.32-.06.45-.09.38-.09s-.09.13-.09.39a1.67,1.67,0,0,0-.87,1.25,5.17,5.17,0,0,0-1.65,2,3.32,3.32,0,0,1-1.84,1.69v.39a9.06,9.06,0,0,1-1,.34,1.94,1.94,0,0,0-.92.53c-.51.13-1.06.29-1.64.48s-1.23.39-1.94.58a2.66,2.66,0,0,0-1.3-.44,2.56,2.56,0,0,1-1.21-.34c-.07,0-.1.07-.1.2a18.76,18.76,0,0,1-2.61-1.5,13.42,13.42,0,0,1-2.42-2.09,9.93,9.93,0,0,1-1.74-2.66,6.68,6.68,0,0,1-.58-3.24c-.07-.06-.15-.15-.24-.24s0-.18.14-.24a2.17,2.17,0,0,1-.24-1c0-.48,0-.79.24-.92.13.13.13.19,0,.19s-.16.07-.09.2.22-.1.29-.49,0-.61-.29-.67c-.07-.13,0-.16.09-.1a.25.25,0,0,0,.29,0c.06-.06-.22-.26-.48-.19.06-.33.13-.65.19-1a2.41,2.41,0,0,0,0-1q-2,3-4.16,6a24.81,24.81,0,0,1-5,5.18,5.82,5.82,0,0,1-4.3,1.3,8.38,8.38,0,0,1-2.76-.82A3.63,3.63,0,0,1,60.3,129a1.71,1.71,0,0,0-1.16-1,3.45,3.45,0,0,1-.14-.34,1,1,0,0,1,0-.34A5.41,5.41,0,0,1,57.06,124a7.8,7.8,0,0,1,0-3.78,1.09,1.09,0,0,1,0-.62.56.56,0,0,1,.43-.54c-.06-.13-.11-.19-.14-.19s0,0,.14-.1,0-.19-.14-.19-.15-.06-.15-.19a4.35,4.35,0,0,0,.58-1c-.19-.2-.26-.37-.19-.53a2.81,2.81,0,0,1,.29-.54c0-.13,0-.14-.1,0s-.09.09-.09,0,.09-.39.29-.39a3.94,3.94,0,0,1,.09-1.45c.13-.71.3-1.45.49-2.23a19.13,19.13,0,0,1,.63-2.08c.23-.61.44-.92.63-.92a.38.38,0,0,1,0-.53,2.07,2.07,0,0,0,.34-.44c-.07-.12-.12-.14-.15,0s-.08.11-.14,0a1.18,1.18,0,0,1,.58-.87c0-.13,0-.17-.1-.14s-.1,0-.1-.15h.29c0-.19,0-.29-.09-.29.13-.06.19-.35.19-.87.07,0,.08,0,0,.1s0,.1.15.1,0-.2-.2-.39a1,1,0,0,1,.49-.39c-.13-.19-.26-.29-.39-.29a7.31,7.31,0,0,1,.39-1.11,11.31,11.31,0,0,0,.48-1.6c.2-.77.4-1.5.63-2.18s.5-.92.82-.72a.61.61,0,0,0,.2-.44c0-.16.1-.24.29-.24a1.81,1.81,0,0,1,.92.24,8.92,8.92,0,0,0,1,.44,2.62,2.62,0,0,0,.92.73,7.34,7.34,0,0,1,1,.53,7.78,7.78,0,0,1,1.4,3.1,2.91,2.91,0,0,1-.63,2.71c-.39,1.29-.79,2.53-1.21,3.72s-.86,2.41-1.31,3.63c0,.07.1.1.29.1a1.62,1.62,0,0,1-.29.53c-.13.16-.13.4,0,.73a22,22,0,0,0-1.36,5.42c-.26,2-.45,4-.58,5.9a3.57,3.57,0,0,1,1-.73,2.59,2.59,0,0,0,.92-.72.17.17,0,0,1,.19.15v0c.9-.9,1.76-1.8,2.56-2.71a12.56,12.56,0,0,0,2-3h.29c.65-1.09,1.32-2.17,2-3.24s1.42-2.14,2.14-3.24l.19.1a1.65,1.65,0,0,1,.1-.58c.06-.2.22-.26.48-.2,0-.12,0-.19-.1-.19a1.09,1.09,0,0,1,.34-.48.71.71,0,0,0,.25-.58c.9-1.1,1.8-2.13,2.71-3.1a25,25,0,0,0,2.51-3.19.76.76,0,0,0,.39-.1h-.09v-.19c.19-.07.27-.08.24,0s0-.08,0-.34q.48.19.48-.24a.48.48,0,0,1,.39-.53h0c-.15,0-.11.12,0,.25s.1-.2.1-.58c.13.13.21.11.24,0s.08-.15.14,0c.07-.07.1-.12.1-.15s.07-.08.19-.14q-.09,0-.09-.39c.26-.06.43-.31.53-.73a1.58,1.58,0,0,1,.63-1,1.87,1.87,0,0,1,1.6,0A17.92,17.92,0,0,1,89.84,103c0,.13,0,.18-.1.15s-.07,0,0,0a4.92,4.92,0,0,1,.63,2.71,6.24,6.24,0,0,1-.73,2.22c-.39.71-.77,1.4-1.16,2.08a5.25,5.25,0,0,0-.68,2.28c-.26.51-.52,1-.78,1.45a5.63,5.63,0,0,0-.58,1.64.17.17,0,0,0-.14,0,.2.2,0,0,1-.15,0,3.76,3.76,0,0,1-.43,1.74,3.5,3.5,0,0,0-.34,1.94h-.29q0,.2.09.24c.07,0,.1.11.1.24-.13-.26-.19-.13-.2.39a5.62,5.62,0,0,1-.09,1.16q-.3,1.07-.63,2.61T83.82,127a3.3,3.3,0,0,0,.1.82,8.32,8.32,0,0,1,.1,1.11,11.3,11.3,0,0,0,1.59-.09,2,2,0,0,0,1.41-.58.31.31,0,0,0-.44,0,.35.35,0,0,0,0,.08c-.13.2-.35.23-.67.1a3,3,0,0,0,1.3-.68,4.52,4.52,0,0,1,1.21-.77.78.78,0,0,1-.58.63,1,1,0,0,0-.68.53,5.22,5.22,0,0,0,2.18-1.4A21.6,21.6,0,0,1,91.08,125a1.44,1.44,0,0,1,.73-1,1.78,1.78,0,0,0,.82-1.06c.07,0,.1.06.1.19s.08,0,0-.15,0-.11.24,0c-.13-.26-.11-.41,0-.44a.45.45,0,0,0,.34-.24.38.38,0,0,0-.1-.29c-.06-.07,0-.13.1-.2s.16,0,.1.1a.12.12,0,0,0,.09.19c.11-.1.22-.2.34-.29a.43.43,0,0,0,.15-.38c.12,0,.19,0,.19.09a1.22,1.22,0,0,1,.24-.43c.16-.23.34-.48.53-.77s.38-.57.54-.83a.79.79,0,0,0,.14-.68,1,1,0,0,0,.78-.43,8.67,8.67,0,0,0,.38-.82,8.86,8.86,0,0,0,1.65-1.7c.45-.61.94-1.21,1.45-1.79h.39a6,6,0,0,1,.78-1.25.17.17,0,0,0,0,.14.2.2,0,0,1,0,.15c.13,0,.2-.1.2-.29Zm-41,1.43v-.1H60v.1ZM68.63,125h0c.1,0-.15,0-.24-.1h0c.12.13,0,.1,0,.1v.09Zm12.88-17.51a.51.51,0,0,1,0-.48c.1-.2.08-.26,0-.2a5.53,5.53,0,0,1-.87,1,9.44,9.44,0,0,0-1,1c-.19-.19-.32-.11-.39.25s-.22.47-.48.33c0,.39-.23.62-.68.68a13.45,13.45,0,0,1-2,3.44,13.4,13.4,0,0,0-2,3.43H73.9a1.56,1.56,0,0,1-.39.78,6.3,6.3,0,0,0-.58.68.5.5,0,0,0,.09.24c.07.1,0,.14-.09.14h-.2a2.08,2.08,0,0,1-.58.82,1.53,1.53,0,0,0-.48,1,2.59,2.59,0,0,0-1.07,1.26,2.57,2.57,0,0,1-1,1.14c.13.13.09.21-.1.24s-.23.12-.1.24c0-.19.1-.19.29,0-.32.2-.51.23-.58.1a.5.5,0,0,1,0,.63l-.43.44a3.84,3.84,0,0,0,1.6-.92,8,8,0,0,0,1.11-1.36c.32-.48.64-1,1-1.45a6.6,6.6,0,0,1,1.16-1.31c.78-1.35,1.58-2.67,2.42-4l2.52-3.87a11.19,11.19,0,0,1,1.7-1.74,3.12,3.12,0,0,0,1-2.33c.13.07.2,0,.2,0S81.38,107.49,81.51,107.49Zm-3.39,6.1c0-.13,0-.2-.1-.2s.07.21,0,.24,0,.05.1.05Zm2.23-5.71q-.39,0-.39.48A1,1,0,0,0,80.35,107.88Zm1.45-1.07c0-.13,0-.19.1-.19s.06-.06,0-.19-.2.06-.2.19S81.74,106.81,81.8,106.81Zm.49-.09v-.2H82c0,.07,0,.1,0,.1s0,0,0,.1Zm0-.29c.12,0,.17,0,.14-.1a.14.14,0,0,1,0-.19h-.19Zm.58-.78a.39.39,0,0,1,.29-.09c.13,0,.13-.07,0-.2h-.29c.06.07,0,.13-.05.2S82.74,105.65,82.87,105.65Zm.58-1.16c-.07.13-.13.19-.2.19s-.09.07-.09.2a.33.33,0,0,0,.29-.15A.16.16,0,0,0,83.45,104.49Zm-.1.68a.22.22,0,0,0,.24-.15c0-.09,0-.14-.14-.14a.09.09,0,0,1-.08.1h0C83.29,105,83.29,105,83.35,105.17Zm.76,24.2a.82.82,0,0,1,.58-.2c.26,0,.33-.06.2-.19.06.13,0,.16-.24.1a.72.72,0,0,0-.54,0Zm1.65-.29V129h-.49v.1Zm6-2.13a.43.43,0,0,0,.48-.1.24.24,0,0,0,.06-.32l-.06-.06c-.06.13-.13.16-.19.09a.3.3,0,0,1-.1-.19,1.41,1.41,0,0,0-.67.48,1.39,1.39,0,0,1-.68.49c0,.32-.1.42-.29.29v.24a.17.17,0,0,1,0,.14.15.15,0,0,1,.14.1q0,.1.24,0a2,2,0,0,1,1.07-.58ZM99,121.24a4.1,4.1,0,0,1,1.17-2.18,6.84,6.84,0,0,0,1.45-2c-.26,0-.41.08-.44.24a.3.3,0,0,1-.34.25.66.66,0,0,1-.09-.39,2.7,2.7,0,0,0-1.26,1.74A15.58,15.58,0,0,0,98.1,121a6.73,6.73,0,0,1-1.59,1.89,1.37,1.37,0,0,1-.25.67,8.19,8.19,0,0,1-.58.83c-.23.29-.43.58-.63.87a1.35,1.35,0,0,0-.29.63q.1,0,.39-.39c.19-.26.39-.53.58-.82s.37-.55.53-.78a4.58,4.58,0,0,1,.34-.43.16.16,0,0,1,.15.09q0,.1.24,0l.87-1.25A3.76,3.76,0,0,1,99,121.24Zm2.14-7.93a.67.67,0,0,0-.34.09c-.1.07-.09.17,0,.29-.07-.12,0-.19.09-.19a.21.21,0,0,0,.22-.19Z" transform="translate(1.5)"/><path class="a" d="M148.78,108.78a3.72,3.72,0,0,1-.68,1.84,3.35,3.35,0,0,0-.68,1.74c0-.06,0-.08.1,0s.09,0,.09-.14.08.06,0,.19a.23.23,0,0,1-.24.2v.19a2.63,2.63,0,0,1-.49.82,1.08,1.08,0,0,0-.19.92c.06.13.1.15.1,0s.06-.11.19,0a5.45,5.45,0,0,0-.63,1.31,2.65,2.65,0,0,1-.82,1.21.19.19,0,0,0,.22.13l.07,0c.13-.06.19,0,.19.1a1.13,1.13,0,0,0-.1.44.34.34,0,0,1-.19.34,5.53,5.53,0,0,1-1.21,2.7,5.57,5.57,0,0,0-1.21,2.71l-1.55,2.13-1.55,2.13a.38.38,0,0,1-.29.1,4.08,4.08,0,0,1-1.79,1.79,18.33,18.33,0,0,0-2.28,1.4l-2.37.43a6.74,6.74,0,0,1-2.37,0,1,1,0,0,0-.63-.63,7.32,7.32,0,0,0-.92-.24,7.59,7.59,0,0,0-1.26-1,15.88,15.88,0,0,0-1.45-.82,2.78,2.78,0,0,0-1.06-1.65,2.5,2.5,0,0,0-.1-.72c-.06-.23-.19-.34-.38-.34v-.82a.71.71,0,0,0-.29-.63.54.54,0,0,0,0-.73c-.2-.29-.23-.5-.1-.63l-.29-.39c0,.2,0,.33-.1.39a2.4,2.4,0,0,1-.29-1.74,15.39,15.39,0,0,0,.29-1.65c.2-.06.29,0,.29.1v-.19c0-.13,0-.15-.09,0s-.1.08-.1,0v-.29a.45.45,0,0,0,0-.39c.13-.06.19,0,.19.2.13,0,.15,0,0-.15s-.08-.14,0-.14h-.29a3.12,3.12,0,0,1,.19-.59,1.42,1.42,0,0,0,.1-.58c.06-.12.1-.12.1,0v.3a1.91,1.91,0,0,0,.19-.78.21.21,0,0,0,0,.24c0,.1,0,.12-.24,0a2,2,0,0,1,.24-1,1.71,1.71,0,0,0,0-1.22c.06,0,.16-.06.29-.19a1.77,1.77,0,0,1,.34-1.55,2.62,2.62,0,0,0,.53-1.64,6.28,6.28,0,0,0,1.07-2.28,5.7,5.7,0,0,1,1.16-2.27c.13,0,.2,0,.2.14a.69.69,0,0,0,.09.34c-.19-.19-.29-.16-.29.1h.2a2.21,2.21,0,0,1-.34.73.8.8,0,0,0,0,.82,5.62,5.62,0,0,1,1.16-2.42,1,1,0,0,1,0-.68c.09-.25.18-.48.24-.68s0-.06-.1,0a.24.24,0,0,1-.29,0,.19.19,0,0,0,0,.2s.15.06.15.19-.1.1-.1.29a.6.6,0,0,0-.48.24c-.13.17-.13.28,0,.34l-.29.2c0-.07,0-.1.09-.1s.1,0,.1-.1l-.1-.09.2-.39h-.1v-.1h.1v.1a1.55,1.55,0,0,0,.29-1,1.66,1.66,0,0,0,.48-1c.13-.13.19-.16.19-.09s.07.09.2.09.19-.09,0-.29v.1c0,.06-.07.1-.2.1a3.83,3.83,0,0,1,.3-1.5,4.36,4.36,0,0,0,.29-1.6.58.58,0,0,0-.39.53,1.93,1.93,0,0,1-.1.63c-.19-.06-.22-.18-.09-.34a.37.37,0,0,0,.09-.43,40.13,40.13,0,0,0-3.63,3,13.15,13.15,0,0,0-2.76,3.73c-.19,0-.26,0-.19.14s0,.18-.1.25a.61.61,0,0,0-.39.33,1.09,1.09,0,0,1-.29.44c0,.13,0,.11.1,0s.16-.18.29,0a7.63,7.63,0,0,0-2.08,2.47l-1.5,2.85a10.63,10.63,0,0,0-2,3,29.87,29.87,0,0,1-1.69,3.34,12,12,0,0,1-1,2.72,11.29,11.29,0,0,0-1.26,2.76c-.65,1.29-1.3,2.56-1.94,3.82s-1.33,2.5-2,3.72a4.16,4.16,0,0,1-.92,1.75,5.2,5.2,0,0,0-1,1.64c.13.06.06.16-.2.29s-.38.16-.38.1a10.61,10.61,0,0,1-1.94-.24,7.5,7.5,0,0,1-2-.73,5.46,5.46,0,0,1-1.84-1.5,5.68,5.68,0,0,1-.68-2.38h.2c.06-.19,0-.29,0-.29a.35.35,0,0,1-.24-.2,2,2,0,0,0,.19-.77c.07-.45.15-.94.24-1.45a19.17,19.17,0,0,0,.25-2,1,1,0,0,0,.09-.78c.13.13.16.15.1.05a.67.67,0,0,1-.1-.34c.13-.71.31-1.56.54-2.56a12.68,12.68,0,0,0,.34-2.67c.39-1.16.72-2.28,1-3.38s.56-2.19.82-3.29a2.21,2.21,0,0,0,.39-.92c.06-.36.13-.69.19-1,.13,0,.2,0,.2.1s.06.06.19,0,0-.18-.15-.15-.14,0-.14-.14a.38.38,0,0,0,.14-.39c0-.13,0-.19.25-.19a.58.58,0,0,1,0,.34.31.31,0,0,0,0,.34,1.58,1.58,0,0,0,.29-.39,1,1,0,0,0,0-.58c-.13,0-.15,0,0,.14s.08.15,0,.15-.18-.11-.14-.15,0-.11-.15-.24a1.14,1.14,0,0,0,.29-.58,1.13,1.13,0,0,0,0-.68,4.08,4.08,0,0,0,.44-1.11,2.1,2.1,0,0,0,0-1.31,2.67,2.67,0,0,0,.53-1.16,5.67,5.67,0,0,0,.15-1.16c.13-.26.3-.68.53-1.26a1.79,1.79,0,0,0,0-1.45c.26-.06.3-.26.14-.58s-.08-.48.25-.48c0-.07,0-.1,0-.1s0-.06,0-.19-.1,0-.1.09a6.89,6.89,0,0,1,.15-1.11c.1-.48.21-1,.34-1.45s.24-.92.34-1.31.17-.58.24-.58a2.08,2.08,0,0,1,1.5-.58,4.93,4.93,0,0,1,1.6.68,11,11,0,0,1,2.08,1.36,4,4,0,0,1,1.21,2.42,6.79,6.79,0,0,0-.29,1.16c-.07.38-.13.8-.2,1.26a13.84,13.84,0,0,0-1,3.14c-.22,1.13-.43,2.31-.63,3.53a12,12,0,0,0-.92,3.78,8.15,8.15,0,0,1-1.21,3.67l.1.1a12.1,12.1,0,0,0-.92,3.34,9.69,9.69,0,0,1-1,3.24.37.37,0,0,1,.09.44,5.05,5.05,0,0,1-.24.53c-.09.19-.18.37-.24.53a.5.5,0,0,0,.19.53A10.28,10.28,0,0,1,109,126a8.63,8.63,0,0,0,.44-1.2c.19-.07.29,0,.29.09s.16,0,.09-.14a.67.67,0,0,1-.09-.34h.38c-.13-.13-.08-.35.15-.68s.4-.41.53-.29a1.83,1.83,0,0,1,.58-1.06q.11.29,0,.39a1,1,0,0,0-.19.29c.13.06.19.08.19,0v.24a1.5,1.5,0,0,1,.49-.87,2,2,0,0,1-.2.72c-.13.29-.32.37-.58.24a.65.65,0,0,1-.19.49.43.43,0,0,0-.1.48.28.28,0,0,0,.15-.34c0-.16,0-.27.24-.34a.53.53,0,0,1,0,.49.63.63,0,0,0-.15.39,27.37,27.37,0,0,0,2.62-4.26c.77-1.55,1.52-3,2.23-4.36.64-1.09,1.31-2.14,2-3.14a23.31,23.31,0,0,0,1.8-3.15,1.08,1.08,0,0,0,.58-1.06q.29.09.48-.24c.13-.23.13-.37,0-.44A1,1,0,0,0,121,107a1.35,1.35,0,0,1,.63-.83,1.7,1.7,0,0,1,.48-1.06,11.32,11.32,0,0,1,1-1.06.69.69,0,0,1,0-.49l3.68-3.48a20.55,20.55,0,0,1,4.36-3.1c-.07,0-.1-.06-.1-.19a2.26,2.26,0,0,1-.82,0,1.1,1.1,0,0,0-.73.14,2.73,2.73,0,0,1,1.75-.77c.06.13,0,.19-.2.19l.29.29c.13,0,.15,0,0-.09s-.08-.1.05-.1.18,0,.15.1a.3.3,0,0,0,0,.29c.26-.13.52-.24.78-.34a3.6,3.6,0,0,0,.68-.34l.33.19a.3.3,0,0,0,.34,0c.07.13.07.2,0,.2a.08.08,0,0,0-.09.07v0L135,97c0,.2,0,.33-.1.39a.65.65,0,0,0,.49.19,1.91,1.91,0,0,1,.58.1.66.66,0,0,0,.14.68,2.22,2.22,0,0,1,.44.48,1.42,1.42,0,0,0,0,1.07,4.79,4.79,0,0,0,.53,1,3.3,3.3,0,0,0-.15.62.53.53,0,0,0,.24.54H137a2.78,2.78,0,0,1-.24,2,3.71,3.71,0,0,0-.44,1.93,10.36,10.36,0,0,1-1.26,3.83,14.43,14.43,0,0,0-1.45,3.63q-.59.38-.39.87a25.7,25.7,0,0,0-1.5,5q-.54,2.67-.92,5.47a.64.64,0,0,1,.14.72,3,3,0,0,0-.15.83c0,.06,0,.09.1.09h-.1a.33.33,0,0,1,.2.29.76.76,0,0,0,.1.39c0,.13.06.16.19.1s.16,0,.1.1a1.27,1.27,0,0,0,.67-.29,2.63,2.63,0,0,1,.49-.39c.13-.06.19,0,.19,0s0,.14.1.14a.73.73,0,0,1-.58.53,3.77,3.77,0,0,0-.87.25,1.06,1.06,0,0,0,1-.15c.36-.22.63-.4.82-.53s.07-.19,0-.19-.09-.07-.09-.2c.32,0,.48,0,.48-.14s.13-.18.39-.24c.06.13,0,.19,0,.19s-.14,0-.14.1c.32-.13.48-.23.48-.29s-.11,0-.15,0-.08.09-.14,0a1.91,1.91,0,0,0,.48-.68,5.6,5.6,0,0,0,1.75-1.21,19.69,19.69,0,0,0,1.45-1.69,9.73,9.73,0,0,0,1.31-1.41,6.46,6.46,0,0,0,.92-1.59.62.62,0,0,0,.38-.29,1.58,1.58,0,0,1,.29-.39v.19h.1c-.45.13-.48.33-.1.58q.19,0,.15-.24c0-.16,0-.21.24-.14a.77.77,0,0,1-.19.58l-.39.38a.2.2,0,0,1,0-.28h0c.1-.06.11-.16,0-.29-.2.07-.29.17-.29.29s-.13.2-.39.2c.06.06,0,.19-.1.39.2.13.32.11.39,0s.16-.15.29,0c-.19,0-.31.16-.34.48a.59.59,0,0,1-.44.58c.13.26.13.4,0,.44a.8.8,0,0,0-.38.24c0,.06,0,.08.09,0s.1,0,.1,0h.24s.15-.15.34-.15c0-.13,0-.19-.05-.19s0-.07,0-.2a.44.44,0,0,0,.33-.29.9.9,0,0,1,.25-.38c.13-.07.17,0,.14.09s0,.16.15.1l.19-.19c-.06-.07-.19-.1-.39-.1.33-.13.42-.39.29-.78.65,0,1-.25,1-.77h-.19c-.07.07,0,.1.1.1s-.07.16-.2.1a.2.2,0,0,1-.11-.26.08.08,0,0,1,0,0,.57.57,0,0,1,.38-.09.45.45,0,0,1,.14-.63l.1,0q.43-.2.15-.39c0-.06.06-.11.19-.14a.3.3,0,0,1,.29,0,1,1,0,0,1,.39-.49,2.37,2.37,0,0,1,0-.92c.07-.29.29-.46.68-.53q-.1-.09,0-.48.28.09.39,0l.29-.29c-.33,0-.39-.08-.2-.24s.2-.25,0-.25a4.45,4.45,0,0,0,.58-.38q.1.19-.09.24t0,.24l.19-.29a1,1,0,0,1,0-.58h.29c-.13-.13-.13-.31,0-.53s.23-.28.29-.15a3.11,3.11,0,0,1,.25-.38.68.68,0,0,0,0-.59,2,2,0,0,0,.68-1,2.09,2.09,0,0,1,.68-1v-.19a.36.36,0,0,1,0-.2.9.9,0,0,0,.29-.87.45.45,0,0,0,.25-.24c0-.1.17-.15.43-.15.06.13.08.2,0,.2s0,0,0,.09a.58.58,0,0,0,.29-.29C148.36,108.85,148.52,108.78,148.78,108.78Zm-46.86,15.66v.29h.19v-.29a.17.17,0,0,0-.19.15v0C101.89,124.5,101.86,124.44,101.92,124.44Zm.49,3.68V128h-.2v.1Zm-.1-.49a6.43,6.43,0,0,0,.39-1.84A9.17,9.17,0,0,1,103,124h-.29a17,17,0,0,1-.34,1.89A3.66,3.66,0,0,0,102.31,127.63Zm.1-4.16c.13-.13.17-.23.14-.29s-.11,0-.24.1c.06,0,.08,0,0,.09S102.34,123.47,102.41,123.47Zm.39-1.93c-.07.06-.1.22-.1.48.13.06.22,0,.29-.24S103,121.47,102.8,121.54Zm1.25-2.23c.26-.06.36-.16.3-.29a2.19,2.19,0,0,0-.29-.39c-.2.91-.43,1.78-.68,2.61a18,18,0,0,0-.59,2.62.92.92,0,0,0,.25-.44c0-.16.14-.24.34-.24a2.91,2.91,0,0,1,.38-1.89A2.69,2.69,0,0,0,104.05,119.31Zm.1-2.61a.19.19,0,0,1-.22.13l-.07,0c-.13-.06-.13,0,0,.1s.15.24,0,.34a.27.27,0,0,0,0,.34A1.16,1.16,0,0,0,104.15,116.7Zm-.09-.78c0,.13,0,.18.14.15s.15,0,.15.14a.25.25,0,0,0-.25.2.24.24,0,0,0,.15.29q0-.3.15-.39c.09-.06.08-.2-.05-.39Zm.77,1c.19-.06.26-.18.19-.34a.37.37,0,0,1,.1-.43l-.19-.2c-.13.39-.26.79-.39,1.21a8.52,8.52,0,0,0-.29,1.31.52.52,0,0,0,.29-.63c-.07-.29.1-.44.48-.44a.23.23,0,0,0-.14-.24.18.18,0,0,1,0-.27Zm.29-1.65a.18.18,0,0,1-.05.25s-.08,0,.05,0,.11,0,.15-.15,0-.15-.15-.15a.34.34,0,0,1,.19-.09V115h-.2c0,.07,0,.1,0,.1s0,0,.06.14Zm.68-1.16a7.3,7.3,0,0,1,.44-2.22,10.65,10.65,0,0,0,.53-2.23,24.31,24.31,0,0,0-1.45,5.23.61.61,0,0,0,.19-.44.37.37,0,0,1,.29-.37Zm-.39-2.22V112h.2a.23.23,0,0,1-.1-.19Zm1.36-8.91v-.19h.2V103Zm.29-.58a.29.29,0,0,0-.09.2.32.32,0,0,1,.09-.23Zm.2.49c0,.06,0,.09-.1.09s-.07.07,0,.2.11-.05.15-.15,0-.17,0-.17Zm-.1,4.35v.2h.09v-.2Zm2.8,19.85a1.23,1.23,0,0,1,.62-1c.42-.29.6-.6.54-.92s-.18-.45-.34-.39-.28.07-.34,0a.73.73,0,0,1-.24.53c-.16.17-.21.31-.15.44a.15.15,0,0,1,.1-.14h.1a2.19,2.19,0,0,1-.29.39.24.24,0,0,0-.06.33.34.34,0,0,0,.06.06l-.29.14c-.07,0,0,.15.09.34a13.12,13.12,0,0,0-2.23,4.45c.13.07.18,0,.15-.09s0-.13.14,0,.05.17,0,.14a.23.23,0,0,0-.25,0c-.06.13,0,.16,0,.1s.15-.07.15,0a1.42,1.42,0,0,0-.25.34c-.09.16,0,.2.15.14,0-.39.16-.58.48-.58-.06-.13-.06-.19,0-.19s.07-.07,0-.2a12.61,12.61,0,0,0,1.17-1.74,4.46,4.46,0,0,0,.73-2.18Zm-2-22a.76.76,0,0,0-.19.54.75.75,0,0,1-.19.53c.12,0,.17,0,.14-.15s0-.11.15,0a1.93,1.93,0,0,1,0-.48,1.17,1.17,0,0,0,.06-.45Zm0,23.71v.09s0,0,0,.1h.09v-.19Zm1.06-1.74a1.73,1.73,0,0,0-.53.58.76.76,0,0,0,0,.77,1.65,1.65,0,0,1,.29-.63,1.69,1.69,0,0,0,.26-.72Zm-.38-.68a.08.08,0,0,0,.07.09h0v-.09c0-.13,0-.2-.09-.2Zm.77-3c.07-.13.08-.08,0,.14s-.11.31-.24.24a.55.55,0,0,1,.26-.38Zm.2.48c-.07,0-.1,0-.1-.1a.28.28,0,0,0,.19-.09.26.26,0,0,1-.07.19Zm.48-1.93c-.13-.07-.13-.13,0-.2a.31.31,0,0,0,.2-.29.18.18,0,0,1,.11.24.08.08,0,0,1,0,0,.32.32,0,0,1-.27.2Zm1.26,2.9c0-.06,0-.1.09-.1s.07-.06,0-.19-.21,0-.24.1,0,.19.17.19Zm.19-3.58c.13.13.13.18,0,.14a.23.23,0,0,0-.19,0s-.08,0,0-.14.08-.06.21,0Zm.1-.1c-.06,0-.1,0-.1-.05s0,0-.09,0a.63.63,0,0,1,.29-.1c.08,0,0,0-.08.15Zm0-.87c0,.07,0,.1-.1.1v-.2h.1Zm.29,1.16c-.06,0-.06,0,0-.14a.34.34,0,0,0,0-.34c.13-.06.19,0,.19.14a.33.33,0,0,1-.16.34Zm.19-.48c0-.13,0-.19.1-.19s.1-.07.1-.2.08.07,0,.2a.26.26,0,0,1-.23.23Zm1.84-3.58a7.92,7.92,0,0,1-.72,1.6c-.29.48-.6,1-.92,1.49a1.32,1.32,0,0,1,.43-1.11,1.2,1.2,0,0,0,.44-1,1.39,1.39,0,0,0,.58-1,.38.38,0,0,0,.29-.1C114.12,117.35,114.09,117.38,114,117.38Zm-.77.68c0,.13,0,.19-.1.19a.26.26,0,0,0-.19.1v-.29Zm.77-1c0-.26.1-.29.3-.1a1.18,1.18,0,0,1,.29-.82,6.87,6.87,0,0,1,.58-.63c-.2.32-.36.61-.49.87a5.07,5.07,0,0,1-.58.87c0-.1,0-.16-.1-.16Zm.3-1.65.09.1a.3.3,0,0,1-.19.1v-.2Zm.09.1c-.06-.13,0-.16.1-.1s.16,0,.1-.09.08-.1,0,.09,0,.26-.18.13Zm.87-.1h-.09c.07,0,.06-.12,0-.25h.19c0,.07,0,.1-.1.1s0,0,0,.18Zm0,3.68a1,1,0,0,0,.39-.48c-.07,0-.1,0-.1-.1a.66.66,0,0,0-.27.61Zm.59-4.74c.06.13,0,.19,0,.19a.35.35,0,0,0-.24.1.28.28,0,0,0,.09-.19Zm-.2,4c.13.06.19,0,.19-.1s-.06-.16-.19-.1Zm.29-.49a1,1,0,0,0,.39-.67,1.3,1.3,0,0,1,.29-.68c-.19.19-.33.29-.39.29s.06.23,0,.29-.06.16,0,.29a.4.4,0,0,0-.34.19c-.07.13-.06.23.11.29Zm.29-4.64c0,.13.07.19.2.19-.07,0-.1,0-.1.1a.2.2,0,0,0,0-.15.18.18,0,0,1-.08-.14Zm.49-.2a.18.18,0,0,0-.2.16v0a.49.49,0,0,1,0-.44.86.86,0,0,0,.15-.43c.13,0,.19,0,.19-.1.13.13.1.24-.1.34s-.15.24,0,.41Zm.29-1.16c-.13,0-.18-.06-.15-.19a.22.22,0,0,1,.24-.19c.07.13,0,.19-.09.19s-.11.06,0,.19Zm-.1,4.26a2.87,2.87,0,0,0,.68-1c.13-.32.25-.67.38-1.06l-.19.1a3.84,3.84,0,0,1-.58,1,1.16,1.16,0,0,0-.27,1Zm.1-4.06a.3.3,0,0,0,.19-.1v.19H117Zm.29-.1c-.13-.13-.15-.21,0-.24a.22.22,0,0,0,.15-.24c.12.06.12.13,0,.19a.19.19,0,0,0-.19.19.2.2,0,0,0,.06.14Zm.1-1.16c-.07,0-.1-.07-.1-.2s.19,0,.19-.09.13,0,0,0-.14.16-.07.29Zm.38.1c.13,0,.18.06.15.19a.22.22,0,0,1-.24.19c-.07-.13,0-.19,0-.19s.18-.09.11-.19Zm.2-.1c-.07-.06-.07-.1,0-.1s.09,0,.09-.1.1-.12.1,0,0,.2-.17.2Zm1.26-2.13c.06-.06,0,0,0,.24s-.21.31-.34.24a.22.22,0,0,1,.19-.24.23.23,0,0,0,.22-.24h0Zm.48-.87a.26.26,0,0,1,.23-.29H120Zm1.16-1.36-.39.58a3.05,3.05,0,0,1-.38.49,1.06,1.06,0,0,1,.79-1.07Zm-.77-.09v-.2h.19v.2Zm2.71,1.35a.83.83,0,0,1,.48-.87.75.75,0,0,0,.49-.77,12.28,12.28,0,0,0-3.49,4.64c.26-.13.4-.24.43-.34s.21-.2.54-.33c0-.07-.07-.16-.2-.29.13,0,.16,0,.1-.15s0-.14.1-.14a.17.17,0,0,1,0,.19c0,.06,0,.06.14,0a6.18,6.18,0,0,1,1.43-1.94Zm-1.36-2.32a.36.36,0,0,1-.06.51l0,0a5.12,5.12,0,0,0-.49.44c-.13-.2-.08-.36.15-.49a.85.85,0,0,0,.45-.48Zm1.07-1a1,1,0,0,1-.49.39l.15-.29a.72.72,0,0,1,.36-.07Zm2.13-3.48a1.44,1.44,0,0,0-1.16.77,5.77,5.77,0,0,1-.87,1.16,6.66,6.66,0,0,1,1.74-2.27,15.34,15.34,0,0,1,2.52-1.79,1.24,1.24,0,0,0-.29.39.67.67,0,0,1-.39.29c.13.13.16.23.1.29s0,0,.19-.1l-.39.49c-.13,0-.19,0-.19-.1s.06-.13.19-.19a.86.86,0,0,0-.53.19,1.65,1.65,0,0,1-.63.29.65.65,0,0,1,0,.39.37.37,0,0,0,0,.29.23.23,0,0,0-.25.14.22.22,0,0,1-.24.15c0-.13,0-.2.15-.2s.2,0,.07-.16Zm-1.94,2.42c-.06,0-.08-.06,0-.2a.26.26,0,0,1,.25-.19c-.07.07-.09.13,0,.19s-.1.17-.23.23Zm4-.1c-.13-.32,0-.54.34-.67s.47-.36.34-.68a.57.57,0,0,1-.19.24c-.07,0-.1.11-.1.24-.13-.19-.24-.21-.34,0s-.21.21-.34.15a6,6,0,0,1-1.16,1.5,6.5,6.5,0,0,0-1.16,1.4c0,.07,0,.1,0,.1s0,0,0,.1-.21,0-.24.14a.58.58,0,0,1-.14.24l.09.2c.45-.52.87-1,1.26-1.55a5.36,5.36,0,0,1,1.58-1.38Zm-1.94,18.3v-.2a.26.26,0,0,1-.2.1v.1Zm-.1.58a.38.38,0,0,0,0,.33,1,1,0,0,1,0,.34.36.36,0,0,0,0-.64Zm.88-22q.19-.1.24.09c0,.13,0,.2-.14.2a.21.21,0,0,0,0-.15.16.16,0,0,1-.06-.08Zm.38,15v-.29a.22.22,0,0,0-.24.14c0,.16.1.21.23.21Zm.1,2.9c.12.07.21,0,.24-.14s0-.25-.15-.25c.13.13.13.2,0,.2s-.13.12-.13.25Zm.58-1.64a.34.34,0,0,0-.32.36.27.27,0,0,0,0,.12,1,1,0,0,1,0,.58.63.63,0,0,0,.19-.48,1.54,1.54,0,0,1,.09-.52Zm.19-.39a.26.26,0,0,1,.1-.19c.06-.07.06-.16,0-.29s-.31,0-.34.19,0,.32.23.32Zm0-16.94h.1v.2h-.1Zm.09,15.39c.13.07.19,0,.19-.14s-.06-.18-.19,0Zm.59-15.68c.06.07.05.16,0,.29a.53.53,0,0,1-.44.2v-.29c0-.09.24-.17.34-.1s0,.09.1,0Zm-.49.1c-.06,0-.09-.07-.09-.2a1.82,1.82,0,0,1,.38-.29l.49-.19a.18.18,0,0,1-.1.15q-.09,0,0,.24c-.19-.13-.32-.15-.39,0a1.93,1.93,0,0,1-.29.35Zm1.55,11.52a3.91,3.91,0,0,0,.87-1.36,6.31,6.31,0,0,1,.77-1.45c.07-.45.13-.89.2-1.31a2.93,2.93,0,0,1,.38-1.11,12.14,12.14,0,0,0-1.64,3.63,13.7,13.7,0,0,1-1.65,3.73.87.87,0,0,1-.1.72,1.65,1.65,0,0,0-.29.63,7.4,7.4,0,0,0,1-1.6,4.45,4.45,0,0,0,.46-1.82Zm-1.07.19q.19.48,0,.63a.62.62,0,0,0-.19.53h.29a1.15,1.15,0,0,1,.14-.87c.16-.26.31-.52.44-.77-.26.06-.39.19-.39.38s-.09.29-.29.16Zm.4-11.9v-.2H128v.2Zm.48-1.07c-.19.32-.36.48-.48.48s0-.2.14-.24a.46.46,0,0,0,.34-.18Zm-.29.87a.09.09,0,0,1,.08-.1h0c.06,0,.06-.06,0-.19.19,0,.29,0,.29-.1a1.4,1.4,0,0,1-.05.25.5.5,0,0,1-.34.2Zm.68-.87c-.07,0-.1-.1-.1-.29h.19q.1.19,0,.15c-.06,0-.09.07-.09.2Zm.38,10c-.13,0-.18,0-.15-.1a.93.93,0,0,0,0-.29c.12.13.22.2.29.2s0,.09-.14.22Zm.2-10.07c.06.07,0,.17-.29.29a.25.25,0,0,0,.09-.19s.07-.07.2-.07Zm2.51-1a.14.14,0,0,0-.19,0q-.09,0,0-.15c.13-.1.19,0,.19.22Zm.47,30.39c0,.06,0,.1-.09.1s0,0,.09.09.1-.06.1-.19,0-.06-.1.1Zm4.07-4.94h.19v.1c-.06,0-.09,0-.09,0s0,0-.1,0Zm4.45-3.28c-.13-.33-.08-.55.15-.68a.46.46,0,0,0,.24-.58c.32-.06.49-.35.49-.87a16.05,16.05,0,0,0,1.55-2.28,16,16,0,0,1,1.55-2.27,1,1,0,0,1-.39,1.11,1.69,1.69,0,0,0-.68,1.21.45.45,0,0,0-.34.34.83.83,0,0,1-.24.44c.13.13.22.09.29-.1a1.58,1.58,0,0,0,.1-.48H144a.62.62,0,0,0-.29.24,2.37,2.37,0,0,1-.29.34c.13.13.1.26-.1.38a.39.39,0,0,0-.19.49.25.25,0,0,0-.29.2.14.14,0,0,0,0,.09c0,.19-.07.22-.2.09a.88.88,0,0,0,.25-.53.89.89,0,0,1,.24-.53,2.21,2.21,0,0,0-.82,1.06,4.24,4.24,0,0,1-.83,1.26c0,.13,0,.15.05,0s.11-.11.24,0a.2.2,0,0,0,0,.15.24.24,0,0,1,0,.14c-.52-.13-.71-.08-.58.15a.56.56,0,0,1,0,.63.31.31,0,0,1-.29-.2c.05-.06,0,0-.12.27Zm.29.38c0,.13,0,.2-.09.2v-.2Zm.2,1.07a.16.16,0,0,1-.24-.1c0-.1,0-.16.14-.1s0,.1.05.1,0,.1,0,.17Zm-.2-.29v-.1h.1v.1Zm1.07-2.61c.06.06,0,.09-.19.09l.09-.09Zm.19.77-.19-.1c0-.13.05-.17.15-.14s.11.18,0,.31Zm.2-1.26c-.2.07-.29,0-.29-.19a.26.26,0,0,1,.19-.1.37.37,0,0,0,.1.36Zm1.26-.48q0-.2.09-.15c.07,0,.1,0,.1-.14a.22.22,0,0,0-.24.14c0,.17,0,.22.05.22Zm1.26-4.65a.16.16,0,0,1,.05-.14.19.19,0,0,0,0-.15h.1v.29Zm.77,1c.06.07.11,0,.15-.1s0-.16-.05-.09,0,.09-.1.09-.06.08,0,.14ZM146,118a.15.15,0,0,0,0-.2c0-.06,0-.1.15-.1C146.22,117.88,146.16,118,146,118Zm.1-7.75c.13-.06.2,0,.2.15s-.07.21-.2.14Zm1.17,2.52c.06,0,.09,0,.09-.1h-.19Z" transform="translate(1.5)"/><path class="a" d="M170.55,110.53c-.64,1-1.26,2-1.84,3a12.7,12.7,0,0,1-2.13,2.81,8.49,8.49,0,0,1-.68,1.26c-.32.51-.71,1.09-1.16,1.74a.38.38,0,0,1,.29.1,1.16,1.16,0,0,1,.34-.39c.16-.13.18-.26,0-.39a2.17,2.17,0,0,1,.29-.24c.13-.1.13-.24,0-.44a1.63,1.63,0,0,0,.87-.58,2.61,2.61,0,0,1,.77-.67,7.06,7.06,0,0,1,1.75-2.91.35.35,0,0,0,0,.2.61.61,0,0,1,0,.19,8.91,8.91,0,0,0-1.1,1.69,9,9,0,0,1-1.16,1.7v.14s0,0,0,.15a5.3,5.3,0,0,0-1.12,1.5c-.42.74-.85,1.53-1.3,2.37s-.88,1.64-1.26,2.42a6.35,6.35,0,0,1-1.07,1.64c-.39.71-.79,1.49-1.21,2.32a19.12,19.12,0,0,1-1.45,2.42,12.14,12.14,0,0,1-1.79,2,3.66,3.66,0,0,1-2.23,1,.47.47,0,0,1-.24.24,1,1,0,0,0-.34.25.82.82,0,0,0-.58-.2.78.78,0,0,0-.58.2,14.55,14.55,0,0,1-5.42-1.85,7.41,7.41,0,0,0-1.65-1.84,6.47,6.47,0,0,1-1.64-2,14.71,14.71,0,0,1-.29-6.82c.45-2,.93-4,1.46-5.86a17.62,17.62,0,0,1,.53-2.37c.29-1.06.63-2.21,1-3.43s.77-2.42,1.16-3.59l1-2.9a1.72,1.72,0,0,1,.82-1.11,1.85,1.85,0,0,1,1.16-.1,3.43,3.43,0,0,1,1.22.58,5.81,5.81,0,0,1,1,.92,30,30,0,0,1,1.84,2.62,20.23,20.23,0,0,1-1.41,4.21,20.21,20.21,0,0,0-1.4,4.21c-.32.13-.45.32-.39.58a1.45,1.45,0,0,1-.1.87c-.25,0-.32.19-.19.58-.32,1.29-.68,2.76-1.07,4.4a45,45,0,0,0-.87,4.7,11.38,11.38,0,0,0-.24,1.64,6.37,6.37,0,0,0,.14,1.74h.1v.2h-.1a.38.38,0,0,1,.1.29,3.33,3.33,0,0,0,1.93-.87,9,9,0,0,1,1.75-1.26,16.59,16.59,0,0,1-2.42,2,.29.29,0,0,1,.09.2,14.14,14.14,0,0,0,3.88-3.39q1.93-2.33,3.77-4.64v-.1l1-1.16h-.1c0-.13,0-.2.1-.2s.1,0,.1-.09h.1l.38-.49a1.27,1.27,0,0,1,.58-.67l1.17-1.36c.13-.13.17-.13.14,0s0,.2.15.2h.29c-.13-.13-.18-.23-.15-.29s0-.19-.14-.39c.06,0,.16.13.29.39a.28.28,0,0,0,.09-.19c0-.07.07-.07.2,0a.43.43,0,0,0-.05-.25.17.17,0,0,1,0-.14c.52-.07.77-.27.77-.63s.23-.6.68-.73a.39.39,0,0,1-.09-.29h-.2a1.94,1.94,0,0,1,.39-.72c.19-.23.39-.44.58-.63a.59.59,0,0,1-.1.34,2.27,2.27,0,0,0-.19.34,7.23,7.23,0,0,0,1.5-1.89,3.86,3.86,0,0,1,1.6-1.6c-1.16,1.87-2.7,4.07-4.6,6.58s-3.7,4.87-5.38,7.07c.13,0,.2,0,.2-.15s.06-.14.19-.14a.33.33,0,0,0,0,.24.4.4,0,0,1,.05.24.22.22,0,0,0-.24.14.24.24,0,0,1-.25.15.39.39,0,0,1-.09-.29c-.39.52-.75,1-1.07,1.45s-.65.9-1,1.36c0,.06,0,.09.05.09s0,0,0,.1.19,0,.19-.1.07-.09.2-.09c-.2-.33-.07-.52.39-.59s.7-.25.77-.58c.13-.12.21-.14.24,0a.22.22,0,0,0,.24.14l1.55-2h0c0-.13.12-.26.38-.39.91-1.09,1.83-2.29,2.76-3.58a30.07,30.07,0,0,0,2-3c.9-1.29,1.82-2.59,2.76-3.92s1.82-2.69,2.66-4.11a.27.27,0,0,1,0,.38h0A.47.47,0,0,0,170.55,110.53Zm-23.52,10c.26-.13.22-.19-.1-.19.13-.26.28-.53.44-.82s.08-.6-.24-.92a34.72,34.72,0,0,1-.83,3.77,8.44,8.44,0,0,0-.15,3.87,1.21,1.21,0,0,1,.2-.92c.19-.29.13-.59-.19-.92a.43.43,0,0,1,.29.1c0-.13,0-.21-.1-.24s-.1-.11-.1-.24h.29c.07-.26,0-.39-.19-.39a1,1,0,0,0,.48-.87c.07-.45,0-.74-.19-.87q.48-.11.39-.54a.87.87,0,0,1,.09-.72c-.06,0-.12-.07-.12-.14Zm.58-2.32a.83.83,0,0,0,.1-.34c0-.1.06-.11.19,0a1.65,1.65,0,0,0-.48-.39.42.42,0,0,1-.2.34c-.13.1-.13.25,0,.44Zm.48-1.74a5.44,5.44,0,0,0,.15-.54c0-.16-.08-.3-.34-.43.07.13,0,.29-.1.48a.48.48,0,0,0,0,.58h0c0,.14.2,0,.29-.13Zm.3-1.07c-.07-.13-.07-.22,0-.29a1.32,1.32,0,0,0,.19-.29c-.13.07-.19,0-.19,0s0-.14-.1-.14a1.86,1.86,0,0,1-.19.77h.09a1.14,1.14,0,0,0,.2-.09Zm3,14.52v-.1h-.19v.1Zm4-31a2,2,0,0,1-1.21-.43,1.26,1.26,0,0,1-.38-.73,1.8,1.8,0,0,1,0-.73c.07-.22.13-.43.2-.63s0-.06-.15,0-.14,0-.14-.09.1-.2.29-.39a.32.32,0,0,1,0-.58,5,5,0,0,1,.1-1.16,19.47,19.47,0,0,1,.53-2.61c.22-.84.44-1.71.63-2.62.26-.71.6-1.09,1-1.16a2,2,0,0,1,1.25.24,4.79,4.79,0,0,1,1.12.83c.32.32.51.48.58.48s0,.1-.05.1,0,0,0,.09.19.14.19.2a.3.3,0,0,0,.1.19V90a3.21,3.21,0,0,1-.15,2.61,8.56,8.56,0,0,0-.82,2.52h-.29l-.19.39c-.33.19-.49.61-.49,1.25a1.36,1.36,0,0,1-1,1.36,3.54,3.54,0,0,0-.67.67c0,.2-.17.2-.43.11Zm-1.46,27.78c-.07,0-.07-.06,0-.19s.13-.2.19-.2Zm.67-.68q-.09.2,0-.09c.07-.2.16-.3.3-.3v.3c-.14-.07-.18-.07-.15,0s-.05.07-.18.07Zm2.14-2.42h.19v.2h-.2Zm1.74-1.83c-.07,0-.1-.07-.1-.2h.2q.09.2,0,.15c-.1,0-.13,0-.13,0Zm2.22,3.09c.2,0,.29,0,.29-.14s.07-.18.2-.24c-.36,0-.52.12-.52.37Zm1-1.16c.2-.32.6-.9,1.21-1.74s1.25-1.71,1.89-2.61a2.24,2.24,0,0,1-.44.87c-.28.45-.62.94-1,1.45s-.74,1-1.07,1.4-.58.62-.65.62Zm.78-5.42.09.1h.2v-.1Zm.77-1.26c-.06,0,0,0,.05-.14a.38.38,0,0,1,.24-.15v.2a.17.17,0,0,0-.14,0,.21.21,0,0,1-.21.07Zm1.55-1.64c-.06,0-.06,0,0-.1Zm.58-.77a.42.42,0,0,1-.29.24c-.13,0-.13.18,0,.43a.44.44,0,0,1,.29-.24c.07,0,.07-.19-.06-.44Z" transform="translate(1.5)"/><path class="a" d="M216.72,105.81a1.8,1.8,0,0,1-.14,1.12,1.24,1.24,0,0,0-.15.92,6.26,6.26,0,0,0-1,2,6.06,6.06,0,0,1-1,2c0,.07,0,.08.09,0s.1,0,.1,0a2.3,2.3,0,0,1-.78,1.26.41.41,0,0,0,0,.19.67.67,0,0,1,0,.2,2.45,2.45,0,0,1-1.11,1,2,2,0,0,0-1,1,9.73,9.73,0,0,0-1.65,1.35,2.88,2.88,0,0,0-1.16.44,5.62,5.62,0,0,1-1.16.62c.13-.12.16-.22.1-.29a1.11,1.11,0,0,1-.92.73,2.25,2.25,0,0,0-1.21.63,3.56,3.56,0,0,1-.92.24.79.79,0,0,0-.63.34,2.42,2.42,0,0,0-1.41.38,3.23,3.23,0,0,0-.82.87,8.19,8.19,0,0,0-.53,1.07,2.92,2.92,0,0,1-.63,1,5.07,5.07,0,0,0-.68,1.79,2.15,2.15,0,0,1-1,1.5.23.23,0,0,0,0,.24c0,.1,0,.14-.14.14s.05.2.14.2.12.06,0,.19h-.38a3.51,3.51,0,0,1-.78,1.55,3.51,3.51,0,0,0-.78,1.55c-.25.06-.38.29-.38.67a1,1,0,0,0-.68.39,3.32,3.32,0,0,0-.34.68,3.13,3.13,0,0,1-.39.72,1,1,0,0,1-.63.44v.29c-.19,0-.29.16-.29.48q-.48,0-.72.63c-.17.42-.38.5-.63.25-.13.06-.16.14-.1.24a.43.43,0,0,1,.1.24c-.13,0-.18.05-.15.14a.23.23,0,0,1,0,.25,4.94,4.94,0,0,0-1.21.62c-.42.29-.82.6-1.21.92a6,6,0,0,1-1.21.78,1.83,1.83,0,0,1-1.3.09,12,12,0,0,1-3.87-1.55,6.16,6.16,0,0,1-2.71-3.68c.32,0,.42-.3.29-.92a8.59,8.59,0,0,1-.19-1.11,3.4,3.4,0,0,1,.53-1.89c.35-.54.73-1.08,1.11-1.59s.84-1.23,1.17-1.74a6.11,6.11,0,0,1,1.45-1.55,23.09,23.09,0,0,1,2.71-2q1.35-.87,3-1.74v.19a2.61,2.61,0,0,1,1.16-.77c.52-.2,1-.37,1.5-.54a6.15,6.15,0,0,0,1.31-.58,1.64,1.64,0,0,0,.77-1,16.83,16.83,0,0,1,.54-2c.22-.67.43-1.37.63-2.08.25,0,.38-.09.38-.29-.25-.06-.3-.19-.14-.38a.59.59,0,0,0,.05-.68c.32-.13.48-.29.48-.49s-.09-.06-.09,0,0,.1-.1.1-.13-.24,0-.34.1-.14-.1-.14c0-.07.13-.1.39-.1-.26-.06-.32-.21-.19-.43a.78.78,0,0,0,.09-.63c.13,0,.2,0,.2.09a22,22,0,0,1,.29-2.8c.13-.71.22-1.37.29-2a8.92,8.92,0,0,0,0-1.79,8.73,8.73,0,0,0-.58-2.13h.29c-.19-.06-.26-.13-.19-.19a1,1,0,0,0,.19-.29c-.32-.2-.42-.55-.29-1.07a9.71,9.71,0,0,0-3.1,2,23,23,0,0,0-2.32,2.71c-.71,1-1.37,2-2,3a15.43,15.43,0,0,1-2.22,2.81c.13.13.14.21.05.24s-.12.15-.05.34a1,1,0,0,0-.78.73,1.47,1.47,0,0,1-.58.91.26.26,0,0,1,.15.29c0,.13-.18.2-.44.2,0,.64-.19,1-.58,1.16a1.5,1.5,0,0,1-.53,1,1,1,0,0,0-.25,1.12h-.29c0,.13,0,.19.1.19a13.78,13.78,0,0,0-3.2,4.84q-1.65,3.58-3.24,7.74t-3,8a33.37,33.37,0,0,1-2.47,5.57.19.19,0,0,0,0-.15.17.17,0,0,1,0-.14c-.13.39-.44,1.37-.92,3s-1,3.26-1.51,5-1,3.39-1.35,4.84a9.17,9.17,0,0,0-.49,2.37.09.09,0,0,0-.1.08v0c-.06,0-.09-.07-.09-.19-.27.94-.5,1.89-.68,2.85a17.74,17.74,0,0,0-.25,2.18,16.61,16.61,0,0,1-.19,2.18c-.1.75-.27,1.69-.53,2.85a22.8,22.8,0,0,1-.54,3.29c-.29,1.29-.56,2.45-.82,3.49a.82.82,0,0,0-.58.28,2.08,2.08,0,0,0-1.21,0,1.81,1.81,0,0,1-1.21-.15,1.07,1.07,0,0,0-1.16-.77c-.2-.33-.37-.63-.54-.92a.68.68,0,0,0-.82-.34,1.17,1.17,0,0,1-.09-.78,1,1,0,0,1-.2.15q-.09,0,0,.24-.19-.11-.09-.24a.34.34,0,0,0,0-.34q.19.09.24,0a.15.15,0,0,1,.14-.1.66.66,0,0,1,0-.48.39.39,0,0,0,0-.39c0-.06,0-.11-.14-.14s-.15,0-.15,0-.16,0-.09-.09,0-.16-.1-.1a12.77,12.77,0,0,1,.1-2.47c.13-1.51.34-3.21.63-5.08s.63-3.64,1-5.32a10,10,0,0,1,1-3.24,1,1,0,0,1-.1-1.21,7.05,7.05,0,0,0,.59-1.12c-.07-.06-.13-.08-.2,0s-.06,0,0-.15l3-16.06a.76.76,0,0,0,.1-.39,1.59,1.59,0,0,0-.1-.68c.13-.32.28-.66.44-1a1.29,1.29,0,0,0,.05-1c.13.06.16.05.09,0s0-.14.1-.14a49.82,49.82,0,0,1,1.21-6,63.64,63.64,0,0,0,1.31-6.25.28.28,0,0,0-.19-.09c-.07,0-.07-.07,0-.2s.08,0,0,.15,0,.11.14,0c.2-.65.36-1.28.49-1.89s.25-1.27.38-2h-.19c0-.13,0-.2.1-.2s.06-.06,0-.19h.29c0-.45-.07-.68-.19-.68a.69.69,0,0,0-.2.53,1.11,1.11,0,0,1-.19.63c0-.13,0-.19-.15-.19s-.11-.06,0-.19c.2.06.28,0,.25-.15a.27.27,0,0,1,.14-.34.48.48,0,0,0-.58-.29.41.41,0,0,0,.24-.24.24.24,0,0,1,.24-.15c0,.07,0,.1-.09.1s-.07.07,0,.2a1.21,1.21,0,0,0,.39-.39,1.24,1.24,0,0,1,.29-.39.93.93,0,0,1,0-1.16c-.26-.06-.34-.19-.25-.39s.08-.25,0-.19a2.27,2.27,0,0,1,.19-.34,3.72,3.72,0,0,0,.19-.34l-.09-.1a4.77,4.77,0,0,0,.24-1.25,1.81,1.81,0,0,1,.53-1.16.44.44,0,0,1-.09-.49c.06-.19,0-.26-.1-.19.13-.26.29-.32.48-.2a.71.71,0,0,1,.2-.87q-.1-.19-.15,0c0,.13-.11.17-.24.1a8.12,8.12,0,0,1,.53-1.6,4.23,4.23,0,0,0,.34-1.79,6,6,0,0,0,.78-3,5.07,5.07,0,0,1,.87-3,1.89,1.89,0,0,0,.78-.14.34.34,0,0,1,.47.12v0a.22.22,0,0,0,.24-.19c0-.13.08-.1.15.1.38-.26.77-.18,1.16.24s.71.79,1,1.11a1.44,1.44,0,0,0,.58-.09c.32.51.59,1,.82,1.4A10.35,10.35,0,0,1,180,102a39.7,39.7,0,0,0-1,4.07,30.13,30.13,0,0,1-1.12,4.06c0,.06,0,.08.1,0s.1,0,.1,0L176,116.34l-1.12,4.79c-.42,1.79-.79,3.41-1.11,4.89l.19.2a14.93,14.93,0,0,0,1-2c.29-.71.6-1.42.92-2.13.13-.12.19-.12.19,0s0,.2.1.2.14-.16.05-.29a.5.5,0,0,1-.05-.49l4.16-7.45c.13-.19.25-.25.34-.19s.21,0,.34-.19h-.29l.49-1a.17.17,0,0,1,.19.15v-.25q.28-.09.39,0-.19-.67.24-.87a1.6,1.6,0,0,0,.73-.68c-.13,0-.2-.06-.2-.19-.13.06-.18.13-.14.19s0,.1-.15.1c-.06-.19,0-.31.2-.34s.25-.11.19-.24.1.1.1.29a.24.24,0,0,0,.24-.15c0-.09.11-.11.24,0v-.29a.38.38,0,0,0-.29-.1q-.1-.19,0-.24c.06,0,.1-.11.1-.24a.8.8,0,0,0,.48.09.57.57,0,0,0,.1-.53.78.78,0,0,1,.1-.63c.06,0,.09.07.09.19v.3a.46.46,0,0,1,.49-.3,3,3,0,0,1-.1-.43,1.18,1.18,0,0,1,.19-.24c.13-.13-.09-.1-.29-.1a2,2,0,0,1,.58-.82,1.3,1.3,0,0,0,.39-1c.32-.06.49-.19.49-.38a.65.65,0,0,1,.19-.49c.13,0,.19,0,.19.1a2.31,2.31,0,0,1,.68-1.6,4.25,4.25,0,0,0,1-1.6q.39,0,.39-.48a18.79,18.79,0,0,0,2-1.89c.62-.67,1.26-1.33,1.94-2a11.3,11.3,0,0,1,2.32-1.69,9.82,9.82,0,0,1,3.25-1l.33.34.44.44L199,96a.6.6,0,0,1,.53.15c0,.06,0,.08-.1,0s-.1,0-.1,0a.76.76,0,0,0,.58.43.77.77,0,0,1,.59.44,5,5,0,0,1,3.28,2.42,14.84,14.84,0,0,1,1.74,4.45,24.87,24.87,0,0,1-.43,5.71q-.54,2.61-1.12,5.13c1.23-.51,2.58-1.16,4.07-1.93a14.83,14.83,0,0,0,4.55-4.16.17.17,0,0,1,.19.15v0c.13-.06.15-.11.05-.14s-.11-.08-.05-.15l2.52-2.22c-.07.26-.42.64-1.07,1.16a4.57,4.57,0,0,0-1.16,1.16c.32.45.2.74-.39.87a.31.31,0,0,1,.1.24c0,.1-.1.18-.29.24.13,0,.19.07.19.2a7.75,7.75,0,0,1,1.17-1.12,12,12,0,0,0,1.25-1.11c-.06-.06-.11-.08-.14,0s-.05,0-.05-.14a1.33,1.33,0,0,0,.68-.53c.13-.23.26-.47.39-.73.06,0,.09,0,.09,0s0,0,.1,0C216.27,106.14,216.46,105.88,216.72,105.81ZM163.17,161a1.91,1.91,0,0,1,.05-.44c.05-.23,0-.31-.05-.24a.59.59,0,0,1-.1.34C163,160.71,163,160.83,163.17,161Zm.1-1.17a12.15,12.15,0,0,0,.39-1.16,1.17,1.17,0,0,0,0-1c-.07.32-.15.64-.25,1a4.71,4.71,0,0,0-.14,1.12Zm.68-3.38a4,4,0,0,0,.19-.68H164a.59.59,0,0,1-.1.34c-.11.06-.08.17.1.3Zm1.26-7.94a19,19,0,0,0,.92-4,32,32,0,0,1,.73-4c0-.07-.06-.1-.2-.1-.51,2.32-1,4.79-1.55,7.4a54.43,54.43,0,0,0-1,7.31,32.6,32.6,0,0,1,.63-3.39,14.41,14.41,0,0,0,.47-3.26ZM167,139.9v-.1s0,0,0-.1h-.29a.3.3,0,0,0,.1.2Zm0-.39.19-.19V139H167a.4.4,0,0,1-.05.24.2.2,0,0,0,.05.23Zm.19-.77a1.19,1.19,0,0,1,.15-.58.39.39,0,0,0-.05-.49,1.19,1.19,0,0,1-.15.58.39.39,0,0,0,.05.45Zm.1-1.26a1.35,1.35,0,0,0,.29-.63,1.22,1.22,0,0,0-.1-.82,2.21,2.21,0,0,0-.05.77,1,1,0,0,1-.14.64Zm.39-1.55c.06-.19.14-.42.24-.68a1,1,0,0,0,0-.77,1.65,1.65,0,0,0-.1.58.55.55,0,0,1-.29.48c.13.07.16.13.1.2s-.08.09,0,.15Zm.58-2.81c0-.06,0-.08.09,0s.07,0,0-.15-.19.05-.19.15,0,0,.1,0Zm5.22,4.46a2.37,2.37,0,0,1,.24-1.11,3,3,0,0,0,.34-1,9.44,9.44,0,0,1-1,.53,7.19,7.19,0,0,1-1.17.44c.07.25-.06.38-.38.38a.47.47,0,0,1,.05.54c-.1.22,0,.4.33.53a.5.5,0,0,0-.24.19q0,.1-.24,0a.46.46,0,0,1-.29.49,1.32,1.32,0,0,1,0,.92l-.29.82c-.1.25-.2.53-.3.82a1.7,1.7,0,0,0,0,1,.85.85,0,0,0-.38.09,23.91,23.91,0,0,0-.68,5.71c0-.13.09-.19.29-.19-.13-.32-.07-.55.19-.68-.13.07-.19,0-.19-.05s0-.14-.1-.14H170a1.52,1.52,0,0,0,.29-.92,1.88,1.88,0,0,1,.29-1c0-.06,0-.09.14-.09s.15,0,.15-.1a1.14,1.14,0,0,0,.1-.77,1.34,1.34,0,0,1,.09-.88,4.32,4.32,0,0,1,.44-.82,2.16,2.16,0,0,0,.34-.72,8.12,8.12,0,0,0,.1-1.21,1.17,1.17,0,0,1,.67-1c-.13-.39-.09-.61.1-.68a.7.7,0,0,1-.05-.67.6.6,0,0,1,.71-.48h.06Zm-2.89-25.94c0-.13,0-.2.1-.2a.34.34,0,0,1-.1.16Zm19.17-8.8a18.29,18.29,0,0,1,2.9-3,24.9,24.9,0,0,0,3-2.9,3.77,3.77,0,0,0-1.41.68l-1.11.87c-.13,0-.2,0-.2-.15s-.06-.11-.19,0,0,.18.1.15.13,0,.19.14a3.21,3.21,0,0,0-1,.87,2.24,2.24,0,0,1-1.11.78c.06.26,0,.42-.14.48a3.5,3.5,0,0,0-.54.29l-1.11,1.69a9.63,9.63,0,0,1-1.31,1.6,1,1,0,0,1-.68,1,3,3,0,0,1-1.45,2c0,.65-.26,1-.77,1a.39.39,0,0,0,.09.29.91.91,0,0,0-.58.68.88.88,0,0,1-.68.67c.13.07.13.18,0,.34a1.12,1.12,0,0,1-.38.34q.09.48-.15.63c-.16.1-.21.27-.14.53-.13-.13-.21-.08-.25.15s-.14.34-.34.34a.83.83,0,0,1,0,.58,18.75,18.75,0,0,0-2,3.14c-.62,1.19-1.28,2.34-2,3.44h-.38c-.13,0,0,.21,0,.24a1,1,0,0,1,0,.25c-.26.06-.35.14-.29.24s0,.08-.19,0a.63.63,0,0,1-.39.77q.19,1-.39,1.26a3.17,3.17,0,0,1-.38,1.16,9.77,9.77,0,0,1-.68,1,2.27,2.27,0,0,1-.58,1.31,1.16,1.16,0,0,0-.29,1.3,1.4,1.4,0,0,0-.39,1.26c-.46.19-.62.62-.49,1.26a1.57,1.57,0,0,0-.48,1.16,1.25,1.25,0,0,1-.49,1.06,6,6,0,0,1-.53,1.7,3.54,3.54,0,0,0-.34,1.69q.19,0,.24-.09c0-.07.12-.1.25-.1a5.47,5.47,0,0,0,.82-1.45c.22-.56.46-1.11.73-1.65a.58.58,0,0,0-.1-.38,3.07,3.07,0,0,0,.63-1.31c.1-.49.21-1,.34-1.5a17.34,17.34,0,0,0,.82-1.94c.23-.64.47-1.32.73-2a2.07,2.07,0,0,0,1-1.31,14.56,14.56,0,0,1,.48-1.59,13.16,13.16,0,0,0,2-3.34,9.21,9.21,0,0,1,2.08-3.14,2.11,2.11,0,0,1,.63-1.31,2.25,2.25,0,0,0,.63-1.31,33,33,0,0,0,3.2-4.84,55.07,55.07,0,0,1,3-5.07Zm-16.18,24v.29a.2.2,0,0,0,.15,0,.24.24,0,0,1,.14,0c-.06,0-.09-.06-.09-.19Zm1.07-.49-.2-.09v.09a.09.09,0,0,0,.08.1h0a.09.09,0,0,1,0-.13.11.11,0,0,1,.08,0Zm.09,6.2c0,.25.07.35.2.29v-.29Zm.39-.87a4.66,4.66,0,0,0,1-1.84q.28-1.07.48-2.13c-.26.64-.51,1.29-.77,1.93a17.59,17.59,0,0,0-.71,2Zm4.46-9.39a83.6,83.6,0,0,1,5.86-10.45q3.24-4.94,6.34-10a4.35,4.35,0,0,0-1.79,2,6.32,6.32,0,0,1-1.6,2.23,5.14,5.14,0,0,1-1.06,1.69,4.13,4.13,0,0,0-1,1.79q-1.65,2.43-3.15,5t-3,5.17c-.65,1.23-1.33,2.47-2,3.73a12.4,12.4,0,0,0-1.45,4,8.88,8.88,0,0,0,1.35-2.61,7.91,7.91,0,0,1,1.5-2.59Zm-2.55-2a.58.58,0,0,0-.19.39h.29C177.13,120.38,177.09,120.25,177,120.31Zm.29-.68v.2h.2c0-.06,0-.1-.05-.1s-.05,0-.05-.1ZM185,131.74A10.12,10.12,0,0,1,185,133a1.4,1.4,0,0,0,.43,1.11,6.15,6.15,0,0,0,1.65-1.16,5.41,5.41,0,0,1,1.45-1.06.25.25,0,0,1,.2-.25.22.22,0,0,0,.19-.24c-.06.07-.1.07-.1,0a.08.08,0,0,0-.07-.09h0a.41.41,0,0,1-.15.33.14.14,0,0,1-.24,0v-.1l-.1-.1a2.9,2.9,0,0,0,1.31-1.55,3.93,3.93,0,0,1,1.11-1.64.25.25,0,0,1,0,.29.19.19,0,0,0,0,.29l.34-.34a.53.53,0,0,1,.43-.14.38.38,0,0,0,.1.29l.63-1.07a2.21,2.21,0,0,0,.34-1.06h.29a.47.47,0,0,1,.14-.53.39.39,0,0,0,.05-.54c0,.13,0,.2-.09.2a.62.62,0,0,1-.05-.63q.13-.34.63-.24a2,2,0,0,1,.09-1.07,3.69,3.69,0,0,0-.67.44.94.94,0,0,1-.58.24.59.59,0,0,1,.33-.29.6.6,0,0,0,.34-.39,20.8,20.8,0,0,0-2.71,1.74,14,14,0,0,0-2.22,2.13c-.07.13-.09.23-.05.29s0,.13-.15.19l-2.32,3c.09.49-.06.74-.45.74Zm1,3.48a10.5,10.5,0,0,0,3.19-2.46,6.78,6.78,0,0,0,1.84-3.34l-.58,1.06a6.15,6.15,0,0,0-1.84,1.89,5.72,5.72,0,0,1-1.94,1.88.7.7,0,0,1-.48.44.39.39,0,0,0-.22.53Zm.48-11a.3.3,0,0,0-.29.19.18.18,0,0,0,.05.26s0,0,0,0,0-.19.29-.19a.27.27,0,0,0-.05-.15.22.22,0,0,1-.05-.17Zm1.55-1.07A1.9,1.9,0,0,0,187,124a6.65,6.65,0,0,1,.58-.33,1.22,1.22,0,0,0,.48-.55Zm.29,8.91c-.07-.07-.11-.05-.15.05a.22.22,0,0,1-.24.14v.1a.09.09,0,0,0,.08.1h0c.19-.23.29-.36.29-.45Zm1.26-9.68c-.64.13-1,.36-1.06.68Zm4.84-2.51a12.64,12.64,0,0,0-2.51,1,14.22,14.22,0,0,0-2.13,1.4l2.22-1.2c.78-.44,1.58-.85,2.42-1.23Zm-3.68,13a2.35,2.35,0,0,0,.19-.25c.07-.09,0-.18-.09-.24a.45.45,0,0,1-.15.34c-.1,0-.08.09.05.09Zm.58-.88q.19.1.24-.09c0-.13,0-.2-.14-.2.06.13.05.18,0,.15s-.16,0-.1.08Zm.48-1.84a.53.53,0,0,0,.25-.19q0-.09.24,0a1.8,1.8,0,0,1,.44-.87.66.66,0,0,0,.14-.77,2.22,2.22,0,0,0-.68.87Zm1.47-29.51a1,1,0,0,1,.39-.49c0-.19-.07-.29-.2-.29a4.55,4.55,0,0,1-.82.82,2,2,0,0,0-.63.92,4.4,4.4,0,0,0,.54-.67.62.62,0,0,1,.72-.35ZM192.71,130h-.1c0,.19,0,.29.1.29Zm.09-.39q0,.39-.09.39c.06,0,.09,0,.09-.05s.07,0,.2,0c-.13-.13-.16-.19-.1-.19S192.93,129.68,192.8,129.61Zm.1-1.35a.26.26,0,0,0,.29-.23V128H193c0,.13,0,.19-.05.19s0,0,0,.1Zm.49-.49c.25-.51.53-1.06.82-1.64a5,5,0,0,0,.53-1.65c-.26.52-.55,1-.87,1.55a7.75,7.75,0,0,0-.77,1.65.17.17,0,0,1,.14,0,.16.16,0,0,0,.15.09Zm.38.87a.18.18,0,0,0-.05-.24c-.05,0-.14,0-.14.15a.28.28,0,0,1,.19.09Zm.39-1c.13-.26.1-.39-.1-.39,0,.3,0,.43.1.43Zm.29-.39a.54.54,0,0,0-.1-.39.3.3,0,0,0-.19.1Zm.1-.58v-.19h-.2v.19Zm.58-1.45a5.34,5.34,0,0,0,.39-.44.44.44,0,0,0,0-.53,1.09,1.09,0,0,1-.29.44.54.54,0,0,0-.1.57Zm.19-2.71c.07.13.08.21.05.24a.4.4,0,0,0-.05.24c.2-.06.31-.16.34-.29a.83.83,0,0,1,.24-.39,1.49,1.49,0,0,0-.58.24Zm.29,1.55a1.42,1.42,0,0,0,.63-.83c.16-.42.15-.72-.05-.92,0,.39-.09.58-.29.58a1.69,1.69,0,0,1-.09.63l-.2.58Zm0-27.49a.31.31,0,0,0,.24,0s0-.14-.15-.15,0,.1,0,.1,0,0,0,.09Zm1.16-.58a.28.28,0,0,0,.09.19c.07.07.1,0,.1-.1s-.1,0-.1,0,0-.08-.07-.08Zm.67,21.2a1.16,1.16,0,0,1,.24-.34.26.26,0,0,0,0-.34c.06.13,0,.24-.15.34s-.21.25-.07.38Zm.67-1a1,1,0,0,1,.25-.68.57.57,0,0,0,0-.68c.07.13,0,.18,0,.15a.24.24,0,0,0-.15,0v.38c-.26.26-.45.26-.58,0a.59.59,0,0,1-.15.44c-.09.1-.08.27.05.53.2-.06.31-.13.34-.19s.13,0,.26.12Zm-.19.77-.1-.1h-.09v.1Zm.1-.19q-.2-.19,0-.24c.12,0,.16-.12.09-.25h-.29a.4.4,0,0,1,0,.34c0,.15.08.22.18.22Zm.29-6.39c.13.07.19,0,.19-.1s-.06-.16-.19-.09Zm.19-.77a.18.18,0,0,0,.2-.16v0c0-.13-.07-.16-.2-.09Zm.49-1.46c-.07,0-.1,0-.1-.09h-.1v.09Zm4.74,8.23a.63.63,0,0,1,.53-.38q.44-.1.24-.39a1.62,1.62,0,0,1-.68.34c-.3.16-.33.31-.07.5Z" transform="translate(1.5)"/><path class="a" d="M251.75,113.57a.82.82,0,0,1-.72.63.81.81,0,0,0-.73.63.68.68,0,0,0,.58-.24.68.68,0,0,1,.58-.24,4.91,4.91,0,0,1-.82,1,4.07,4.07,0,0,0-.82,1.07c-.33-.13-.54-.1-.63.1a1.82,1.82,0,0,1-.34.48c.13.13.16.35.1.68a7.83,7.83,0,0,1-1.22,1,7.13,7.13,0,0,1-1.5.78v.39q.2,0,.15-.15c0-.1,0-.11.14,0a4,4,0,0,1-.92.87c-.35.26-.71.53-1.06.82a4,4,0,0,0-.87,1,2.32,2.32,0,0,0-.34,1.31,18.38,18.38,0,0,1-1.55,1.21,7.8,7.8,0,0,0-1.45,1.3c-.39-.13-.63,0-.73.34s-.31.5-.63.44V127c-.13-.13-.19-.13-.19,0a.55.55,0,0,1-.2.39,4.53,4.53,0,0,1-.92.43c-.42.16-.85.31-1.3.44a4.74,4.74,0,0,0-1.12.63A1.4,1.4,0,0,1,234,129c-.13.07-.19.23-.19.48-1.1.39-2.19.75-3.29,1.07a16.41,16.41,0,0,1-3.68.58,8,8,0,0,0-2.13-.1l-1.93.19a14.13,14.13,0,0,1-4.41-1.5,24.18,24.18,0,0,1-3.4-2.35l-1.89-2.62a9.25,9.25,0,0,1-1.4-3,6.54,6.54,0,0,1-.72-2.56,16.94,16.94,0,0,1,0-3.34c-.13-.13-.17-.1-.14.09s0,.23-.15.1a17.11,17.11,0,0,1,1.65-4.55,19.63,19.63,0,0,1,2.47-3.53,38.6,38.6,0,0,1,3-3l3.09-2.85a18.63,18.63,0,0,1,3.78-2.28,14.56,14.56,0,0,0,3.68-2.37,15.43,15.43,0,0,1,2-.62,7.6,7.6,0,0,1,2.28-.15c-.07.13,0,.2.09.2s.13.06,0,.19a12.23,12.23,0,0,1,5,.29,6.66,6.66,0,0,1,1.44,1.6,5.84,5.84,0,0,1,1.06,2,2.73,2.73,0,0,1-.09,1.6,4.23,4.23,0,0,1-1,1.4,16.58,16.58,0,0,0-1.36,1.55,11.64,11.64,0,0,0-2,3,10.13,10.13,0,0,1-2.47,1.79,8.78,8.78,0,0,0-2.47,1.89c0,.13,0,.21.05.24s0,.11,0,.24a1.51,1.51,0,0,1-.62.2,1.07,1.07,0,0,0-.54.19c-.06.13-.05.19,0,.19s.15.07.15.2a11,11,0,0,0-1.26.43,4.94,4.94,0,0,1-1.36.34q.19.48-.24.48a4.7,4.7,0,0,1-.92-.09.88.88,0,0,1-.48.24,3.77,3.77,0,0,0-.58.14.39.39,0,0,0,.09.29,17.23,17.23,0,0,1-1.88.34,12.81,12.81,0,0,1-2.23.1,11.55,11.55,0,0,1-2.18-.3,4.83,4.83,0,0,1-1.74-.72.62.62,0,0,0-.49.73s0,0,0,0a15.46,15.46,0,0,0-1.31,3.92,13.54,13.54,0,0,0-.15,4.4,2,2,0,0,0,1.74,1.75,5.25,5.25,0,0,0,2.61.1A2.64,2.64,0,0,0,221,126a14.14,14.14,0,0,1,1.59.1,22.66,22.66,0,0,0,5.81-1.25,38.18,38.18,0,0,0,5-2.28q2.34-1.29,4.55-2.8t4.5-2.85a.78.78,0,0,0-.29.48c.71-.39,1.44-.8,2.18-1.26s1.47-.87,2.18-1.25c-.13-.45,0-.68.29-.68.06.19,0,.27-.1.24s-.16,0-.1.15a10.64,10.64,0,0,0,2.33-1.12c.77-.48,1.55-.92,2.32-1.3a48.54,48.54,0,0,1-4.74,3q-2.43,1.3-4.84,2.85c-.13.13-.13.19,0,.19s.16.07.09.2q-.28-.19-.72.09a2.32,2.32,0,0,0-.63.58l-.1-.19a3.35,3.35,0,0,1-1.26,1.07A3.32,3.32,0,0,0,237.8,121a2.36,2.36,0,0,1,1.16-.63,1.09,1.09,0,0,0,.88-.73,6.09,6.09,0,0,0,1.84-1,8.85,8.85,0,0,1,1.74-1.11c.13.13.06.3-.2.53s-.42.24-.48,0c-.13.06-.16.11-.1.14s.07.12,0,.24a4.63,4.63,0,0,0-1.3.73c-.35.29-.68.6-1,.92.13,0,.32-.13.58-.39.13.07.15.12.05.15s-.11.08-.05.14.29.12.29,0v-.43c.13.06.21,0,.24,0s.08-.14.15-.14a.17.17,0,0,1,.19.15v0c.07,0,.1,0,.1-.15s0-.14-.1-.14a.54.54,0,0,1,.39.1l3.1-1.79c1-.61,2-1.28,3-2l-.1-.09a4.3,4.3,0,0,0,1.79-.82A12.81,12.81,0,0,1,251.75,113.57ZM211,115.3v.19h.09v-.19Zm3.39-5.42a.88.88,0,0,0,.82-.44,7.7,7.7,0,0,0,.43-.92,3.23,3.23,0,0,0,.58-.24.62.62,0,0,0,.3-.63,2.79,2.79,0,0,0,.92-.63,2.62,2.62,0,0,0,.62-.92.39.39,0,0,1-.09.29c.32,0,.55-.22.68-.67.12,0,.19,0,.19-.1s.06-.06.19,0c.07-.32.2-.5.39-.53a.47.47,0,0,0,.39-.34.18.18,0,0,0-.2,0h-.09s.17,0,.14-.09,0-.16.15-.1.06.29.19.29a1.27,1.27,0,0,1,1-.58,3.32,3.32,0,0,1,1.31-1.21,10.47,10.47,0,0,1,1.69-.72l.92-.73A3.21,3.21,0,0,1,226,101a.66.66,0,0,1-.09-.39v-.1q-.1.1-.15,0t-.24-.09a7,7,0,0,1-1.4.87c-.55.26-1,.45-1.31.58-.13.13-.16.21-.1.24s.07.11,0,.24a3.39,3.39,0,0,0-2.08,1.11,5.52,5.52,0,0,1-2,1.41.47.47,0,0,0,0,.43l.19.34c-.32,0-.42-.1-.29-.29a3.68,3.68,0,0,1-.78.58c-.32.19-.45.39-.38.58l-.34.34c-.1.1-.24.11-.44,0a8.38,8.38,0,0,0-.68,1,1.57,1.57,0,0,1-.87.67,2,2,0,0,1-.09.49c-.07.19-.23.25-.49.19a.78.78,0,0,1-.05.34,1.29,1.29,0,0,0,0,.34Zm1.54.09a.49.49,0,0,1,.25-.24.22.22,0,0,0,.14-.24l-.29.29a.31.31,0,0,0-.09.22Zm17-8.21a3.46,3.46,0,0,0-2.76.67,9.15,9.15,0,0,1-2.37,1.45,16.77,16.77,0,0,1-2.32,1.6,9.39,9.39,0,0,0-2.23,1.79c.2.13.31.11.34,0s.11-.18.24,0a.68.68,0,0,0-.29.29c-.06.13-.23.16-.48.1a1.55,1.55,0,0,1-.54.72,4.48,4.48,0,0,1-.72.44,1.69,1.69,0,0,1-.53.73,2.29,2.29,0,0,0-.63.72,8.47,8.47,0,0,0,4-.77l3.54-1.65a2.21,2.21,0,0,1,1.45-1,1.15,1.15,0,0,1,.73-.58.86.86,0,0,0,.62-.58q.11.19.15.09t.15,0c-.07,0-.1.07-.1.2.19.13.29.09.29-.1s.13-.22.39-.1a.44.44,0,0,1,.09-.29c.07-.06,0-.13-.09-.19v.14s-.08,0-.15,0v-.29c.2,0,.29-.06.29-.19s.1-.13.29,0a.67.67,0,0,1,.1-.58.3.3,0,0,1,.41-.14l.07,0a1.19,1.19,0,0,1,.25-.72,4.43,4.43,0,0,1,.43-.54v.3a.69.69,0,0,0,.78-.59.61.61,0,0,0,0-.19c0-.06.06-.06.19,0s.19,0,.19-.1-.13-.32,0-.38a.39.39,0,0,1,.39,0,.3.3,0,0,0,0-.29c0-.13,0-.2.05-.2.06.2.16.23.29.1a1.58,1.58,0,0,0,.29-.39l-.29-.38a.41.41,0,0,0,.48.09c.2-.06.23-.16.1-.29l-1.69.39a3.31,3.31,0,0,0-1.33.62Zm-12.19.76c.13.13.19.12.19,0s-.06-.21-.19-.15Zm5,12.11c0,.13.07.13.2,0Zm.88-15a4.51,4.51,0,0,0-.58,1.26,3.17,3.17,0,0,0,.78-.63,1.3,1.3,0,0,1,.77-.43.16.16,0,0,1,.1-.24c.1,0,.13-.12,0-.25a.18.18,0,0,1-.05.26s0,0,0,0-.19,0-.19-.29a.71.71,0,0,0-.29.25c0,.08-.11.1-.42,0Zm.47,27.69h.39c.13,0,.19-.07.19-.2s-.06-.09-.19-.09-.06.17-.19.14-.13,0-.13.14Zm8-22a.6.6,0,0,0,.48-.44,1,1,0,0,1,.39-.53c-.19.07-.29.08-.29,0s-.13-.08-.39-.15a.85.85,0,0,1-.29.49c.13.06.23.06.29,0s.1,0,.1.09a10.9,10.9,0,0,1-2.91,2.23,15.83,15.83,0,0,0-3,2,1,1,0,0,0,1-.24,1.87,1.87,0,0,1,.87-.53.41.41,0,0,1-.24.24.41.41,0,0,0-.24.24,10.66,10.66,0,0,0,2.61-1.26,4.12,4.12,0,0,0,1.69-2.12Zm-4,20.9a.17.17,0,0,1-.2,0,.17.17,0,0,0-.19,0c.13.19.26.26.39.19Zm-.14-20.3c.07.13.05.18,0,.14s-.15,0-.15.15.23.05.29,0S231.17,106,231,105.92Zm.78-.39h.05a.19.19,0,0,0-.15,0s.07,0,.14,0Zm.18,20a1.48,1.48,0,0,0,.68-.19c.26-.13.32-.29.19-.48a1.42,1.42,0,0,1-.43.29,1,1,0,0,0-.4.41Zm.1-1.93h.2v-.1h-.2Zm.69-19v-.1h-.2v.19Zm.47,18.39h-.09a.26.26,0,0,0-.1.19h.19Zm5.71.2a42.24,42.24,0,0,1,5.18-3.73,26.36,26.36,0,0,0,5-3.92q-3,1.84-6,3.63t-6,3.72h-.48c0,.26-.1.35-.29.29a.4.4,0,0,1-.05.24.4.4,0,0,0,0,.24l-1.3.53a5.57,5.57,0,0,0-1.21.63c.12-.06.19-.06.19,0s.06.13.19.2a8.23,8.23,0,0,0,2.57-.73c.76-.38,1.52-.72,2.32-1Zm-4-1.17a.35.35,0,0,1-.25.1c-.09,0-.08.06,0,.19,0-.06.05-.11.15-.14s.19,0,.12-.09Zm1.74-1.06a1.87,1.87,0,0,1-.49.34,1.61,1.61,0,0,0-.48.34,3.2,3.2,0,0,1,.63-.34c.31,0,.42-.15.42-.3Zm.2-18.78c-.13-.13-.26-.11-.39,0s-.13.18,0,0h.29a.54.54,0,0,0-.09.39c.19,0,.38-.15.58-.44a1.79,1.79,0,0,1,.68-.63c-.26-.26-.33-.48-.2-.68l-.72.49a.51.51,0,0,0-.2.69.55.55,0,0,0,.18.19Zm-.29.49c0-.07,0-.1-.1-.1Zm2.12,16.64a1.44,1.44,0,0,1-.87.87,1.59,1.59,0,0,0-.87.78,4.54,4.54,0,0,1,1.06-.78,3.34,3.34,0,0,0,1.07-.87h.19c-.13-.06-.22-.06-.29,0s-.08.13-.21.06Zm.1,1.46h.2v-.1h-.09Zm1-1.84c-.26,0-.39.09-.39.29.18.06.31,0,.44-.22Zm2-1.36a4,4,0,0,0-2,1.26,2.51,2.51,0,0,0,1.11-.63,2.79,2.79,0,0,1,1-.57Zm.87-.77a.17.17,0,0,0-.14,0,.2.2,0,0,1-.15,0,.2.2,0,0,0,.15,0,.2.2,0,0,1,.22.06Zm.87-.58a1.13,1.13,0,0,1-.43.29,1.09,1.09,0,0,0-.44.29Zm5.62-.77a.79.79,0,0,0,.67-.24,5.34,5.34,0,0,1,.39-.44Z" transform="translate(1.5)"/><path class="a" d="M284.86,96.46a11.83,11.83,0,0,0,.34,1.16c.1.26-.37.42-1.4.48a3.64,3.64,0,0,1-1.65-.39,18.23,18.23,0,0,0-5.47,3.15,39.75,39.75,0,0,0-4,4,53.24,53.24,0,0,1-3.68,4.4,38.83,38.83,0,0,0-3.58,4.5c.06.13.06.21,0,.25s-.06.11,0,.24a23.17,23.17,0,0,0-3.1,5.37,57.39,57.39,0,0,1-2.61,5.56c0,.07.09.1.29.1a3.44,3.44,0,0,0-.92,1.5c-.18.59-.32,1.19-.44,1.79a2.83,2.83,0,0,0-.78,1c-.13.06-.17.06-.14,0a.71.71,0,0,0,0-.29c-.13,0-.2,0-.2.09a.29.29,0,0,1-.09.2c0,.06,0,.08.09,0a.18.18,0,0,1,.2,0,10.5,10.5,0,0,1-.83,2.23c-.35.71-.69,1.42-1,2.13a16.61,16.61,0,0,0-.82,2.27,6.45,6.45,0,0,0-.14,2.66,1,1,0,0,1-.88.29,3.14,3.14,0,0,0-1.06,0c-.06-.13-.23-.21-.48-.24a.59.59,0,0,1-.49-.24q-.19.09-.63-.15l-.92-.53-1.16-.77a2.05,2.05,0,0,1-.77-2,97.13,97.13,0,0,1,2-11.61c-.13,0-.2,0-.2-.1a2,2,0,0,0,.29-.77c.07-.33,0-.52-.09-.58q1-5.13,2.23-10t2.62-9.73c.06-.12,0-.17-.05-.14s-.15,0-.15-.15a.31.31,0,0,0,.2-.29.85.85,0,0,1,.09-.38c-.06-.07-.26-.1-.58-.1a.65.65,0,0,1,.05-.53,1.21,1.21,0,0,1,.39-.39c.16-.1.3-.19.43-.29a.89.89,0,0,0,.3-.44,1.55,1.55,0,0,0,.43,0,1,1,0,0,1,.34,0c0,.06,0,.09.1.09s.09.07.09.2a1.41,1.41,0,0,1,1.31-.29,5.56,5.56,0,0,0,1.4.19.24.24,0,0,0,.15.25c.1,0,.14.11.14.24a.88.88,0,0,1,.92.34q.35.44.24.72a3.75,3.75,0,0,1,.63,2.18,10.83,10.83,0,0,1-.34,2.27q-.28,1.17-.63,2.28a10.79,10.79,0,0,0-.43,2.18,2.41,2.41,0,0,0-.15.33.74.74,0,0,0,.05.44,24.21,24.21,0,0,1,2.42-3.29,27.87,27.87,0,0,0,2.42-3.19,6.36,6.36,0,0,0,1.79-2,5.32,5.32,0,0,1,1.89-1.88c-.06-.07-.11-.08-.14,0s-.05,0-.05-.15a.5.5,0,0,1,.38,0c.13,0,.13,0,0-.25h.2c.1,0,.06,0,0-.14s-.07-.18,0-.25.29,0,.29,0a.67.67,0,0,1,.1-.34l.19.19a7.68,7.68,0,0,1,2.27-2.27A16.29,16.29,0,0,1,275,96a2.31,2.31,0,0,1,1.11-.73,10,10,0,0,0,1.31-.53h.78a4.91,4.91,0,0,1,2.71.2,18.35,18.35,0,0,0,3,.77l.38.44A1,1,0,0,0,284.86,96.46Zm-33.79,32.6c-.07-.07,0-.18.1-.34s.12-.21,0-.15a.4.4,0,0,0-.25.34c0,.22,0,.28.15.15Zm1.74-3.29-.09-.1h-.1v.1Zm.1-1c0-.26.06-.35.19-.29-.13-.13-.16-.24-.09-.34s0-.18-.1-.24-.18.24-.15.53.08.44.15.37Zm.1-7.16a.23.23,0,0,0,.24-.2c0-.12,0-.16-.14-.09s0,.09-.1.09Zm.48,3.68v-.1h-.19v.1Zm-.19-5.23.1-.1v-.09h-.1Zm.29-.58c.13-.13.2-.23.2-.29s-.2.08-.2.24Zm.29-.48a.26.26,0,0,1,.05-.34c.1-.1,0-.15-.14-.15a.46.46,0,0,1,0,.29c0,.06-.1.2.09.2Zm-.09-.68v.09h.09v-.09Zm3.77,8.61a2.35,2.35,0,0,0,1.26-1.54c.19-.71.41-1.42.67-2.13a.83.83,0,0,1-.72.29c-.36,0-.5.16-.44.48h.1q-.19.19.09.39c-.19-.07-.27,0-.24,0s0,.14-.24.14a1.57,1.57,0,0,1-.19,1.16,1.87,1.87,0,0,0-.29,1.28Zm1.06-3a.3.3,0,0,0-.19.1.32.32,0,0,1,.19,0ZM274.89,99a.53.53,0,0,1,.48-.58h0a.7.7,0,0,0,.58-.59,13.75,13.75,0,0,0-2.52,1.7,21,21,0,0,0-2,2c-.65.71-1.26,1.44-1.84,2.18a13.57,13.57,0,0,1-2,2.08c.07.19.07.32,0,.38a7.66,7.66,0,0,0-.92.88,1,1,0,0,0-.24,1.06,8.93,8.93,0,0,0-1.94,1.74,18.39,18.39,0,0,0-1.4,2c-.42.71-.82,1.42-1.21,2.13a13,13,0,0,1-1.36,2,6.6,6.6,0,0,1-.82,1.79c-.36.55-.73,1.08-1.11,1.6a2.55,2.55,0,0,0,1.45-1.11,7.35,7.35,0,0,1,1-1.41c0-.12,0-.17-.05-.14s0,0,0-.15c.26,0,.32-.16.19-.48.13,0,.21,0,.25-.1a1.33,1.33,0,0,1,.14-.19.17.17,0,0,1-.19-.15v0l3.48-5.42h.3c.58-.84,1.16-1.66,1.74-2.47s1.19-1.63,1.84-2.47a19.92,19.92,0,0,0,2.86-3.29,10,10,0,0,1,3.28-2.92Zm-5.52,4.06A16,16,0,0,1,273.1,99a45,45,0,0,1,5.09-3.44.37.37,0,0,0-.44-.09.56.56,0,0,1-.44,0h-.09a2.06,2.06,0,0,1-1.12.67c-.41.11-.81.24-1.21.39-.06.26-.29.42-.67.48,0,.13,0,.2-.1.2s0,.06.1.19l-2.13,1.45a3.93,3.93,0,0,1-1,1.26c-.39.32-.81.64-1.26,1,.06.13.06.19,0,.19s0,.06.09.19a3.54,3.54,0,0,0-1.35,1.31,2.86,2.86,0,0,1-1.36,1.21v-.19c-.25,0-.37.08-.34.24s0,.27-.24.34a.83.83,0,0,1,0,.58.33.33,0,0,1-.24,0,.33.33,0,0,0-.24,0c.13.26.1.4-.1.43s-.26.12-.19.25c-.2,0-.31,0-.34.14s-.15.15-.34.15a.38.38,0,0,0,.1.29.44.44,0,0,0-.39.14.68.68,0,0,1-.29.24q.19.39,0,.54c-.13.09-.16.27-.1.53a.38.38,0,0,0-.29.1,1,1,0,0,1-.29.19q-.09-.2,0-.24h-.1a.38.38,0,0,0,.1.29c-.45.14-.69.34-.72.63s-.28.5-.73.63c0,.33-.13.52-.39.58,0,.13,0,.18.1.15s.1,0,.1,0a1.54,1.54,0,0,1-.59.38.39.39,0,0,1-.19.49c-.19.13-.19.26,0,.38a.38.38,0,0,0-.29.1.38.38,0,0,1-.29.1,1,1,0,0,1-.15.53,2,2,0,0,1-.33.44c.12,0,.19,0,.19.09-.33.52-.68,1.12-1.07,1.79a2.87,2.87,0,0,0-.39,2c-.32.13-.45.33-.38.63l.19.82a1,1,0,0,0,.53-.82.81.81,0,0,1,.54-.73,12.19,12.19,0,0,1,2.42-4.35c.4-.73.84-1.44,1.31-2.13a7.45,7.45,0,0,1,1.79-1.84,17.38,17.38,0,0,1,1.74-2.52c.69-.8,1.35-1.54,2.06-2.25ZM264,106.51c.13.13.15.21.05.25a.22.22,0,0,0-.15.24c.13,0,.2,0,.2-.15s.06-.11.19,0C264.11,106.55,264,106.45,264,106.51Zm1-.87c-.19.07-.29.15-.29.24a.67.67,0,0,1-.1.34,1.81,1.81,0,0,0,.31-.58Zm.39-.48a.3.3,0,0,1-.2.1l.1.09h.1Zm1-1c-.33,0-.42.1-.29.29.12,0,.19,0,.19-.09a.32.32,0,0,1,0-.17Zm3.1-3.67-.3.19a.15.15,0,0,0,.19-.16Zm8.71-5a.38.38,0,0,1,.29-.1c-.07,0-.1,0-.1-.1H278a.25.25,0,0,0,.09.2Z" transform="translate(1.5)"/><path class="a" d="M54.78,151.61a5.64,5.64,0,0,1,2.47,2.06,6.45,6.45,0,0,1,1,3.8,8.33,8.33,0,0,1-.91,4.16,5.28,5.28,0,0,1-2.29,2.27,6.63,6.63,0,0,1-3,.68H48.46V151h3.43A7.56,7.56,0,0,1,54.78,151.61Zm.67,10.56q1.41-1.23,1.41-4.53a5.94,5.94,0,0,0-.78-3.27,4.2,4.2,0,0,0-2-1.7,6.75,6.75,0,0,0-2.51-.48H49.78V163.4H52A5,5,0,0,0,55.45,162.17Z" transform="translate(1.5)"/><path class="a" d="M63,151h1.32v13.57H63Z" transform="translate(1.5)"/><path class="a" d="M70.75,164.48a5.86,5.86,0,0,1-1.76-.94v-1.46h.18a12.21,12.21,0,0,0,2,1.18,4.93,4.93,0,0,0,2.07.43,3.82,3.82,0,0,0,1.53-.29,2.27,2.27,0,0,0,1.38-2.18,2.24,2.24,0,0,0-.3-1.19,3.1,3.1,0,0,0-.92-.92,9.56,9.56,0,0,0-1.62-.84l-.52-.22a15.4,15.4,0,0,1-1.84-.86,3.77,3.77,0,0,1-1.17-1.08,3.05,3.05,0,0,1-.48-1.74,3.61,3.61,0,0,1,.49-1.87,3.51,3.51,0,0,1,1.41-1.29,4.83,4.83,0,0,1,2.18-.46,7.16,7.16,0,0,1,1.84.25,6.25,6.25,0,0,1,1.71.71l-.4,1.29h0a6.42,6.42,0,0,0-3.36-1.09,2.76,2.76,0,0,0-1.41.32,2,2,0,0,0-.82.84,2.68,2.68,0,0,0-.26,1.14,2,2,0,0,0,.28,1,2.67,2.67,0,0,0,.86.78,18.3,18.3,0,0,0,1.71.87l.29.13a21.94,21.94,0,0,1,2,1A4.36,4.36,0,0,1,77,159.23a3.06,3.06,0,0,1,.51,1.79,3.62,3.62,0,0,1-.51,2,3.72,3.72,0,0,1-1.56,1.38,5.48,5.48,0,0,1-2.42.5A7,7,0,0,1,70.75,164.48Z" transform="translate(1.5)"/><path class="a" d="M89.59,152.18h-4v12.4H84.27v-12.4H80.16V151h9.55Z" transform="translate(1.5)"/><path class="a" d="M93.3,151h1.32v13.57H93.3Z" transform="translate(1.5)"/><path class="a" d="M107.47,163.38v1.2h-7.23V151h1.32v12.37Z" transform="translate(1.5)"/><path class="a" d="M118.37,163.38v1.2h-7.23V151h1.33v12.37Z" transform="translate(1.5)"/><path class="a" d="M122.05,151h1.32v13.57h-1.32Z" transform="translate(1.5)"/><path class="a" d="M138.4,151v13.57h-1.25l-6.13-10-.49-.85-.31-.56.09,2v9.42H129V151h1.27l6,9.8.9,1.65c0-.45-.06-1.21-.12-2.27V151Z" transform="translate(1.5)"/><path class="a" d="M153.29,157.47v5.93a4.92,4.92,0,0,1-1.82,1,7.43,7.43,0,0,1-2.52.4,6,6,0,0,1-3.13-.76,4.93,4.93,0,0,1-2-2.28,9.27,9.27,0,0,1-.68-3.75,10.11,10.11,0,0,1,.7-4,5.26,5.26,0,0,1,2.06-2.48,6.25,6.25,0,0,1,3.35-.85,7,7,0,0,1,2.23.34,5.62,5.62,0,0,1,1.74.89l-.46,1.15h-.06a8,8,0,0,0-1.78-.89,5.42,5.42,0,0,0-1.79-.3,4.11,4.11,0,0,0-3.46,1.47,7.19,7.19,0,0,0-1.13,4.4q0,5.81,4.43,5.81a6.76,6.76,0,0,0,3-.68v-4.29h-3.54V157.4Z" transform="translate(1.5)"/><path class="a" d="M178.51,163.13a8,8,0,0,1-1.38-5.08,10.71,10.71,0,0,1,.66-4,5.34,5.34,0,0,1,1.91-2.49,5.09,5.09,0,0,1,3-.85,6.17,6.17,0,0,1,2,.33,6.42,6.42,0,0,1,1.69.86l-.36,1.2h-.11a8.87,8.87,0,0,0-1.7-.89,4.63,4.63,0,0,0-1.68-.31,3.41,3.41,0,0,0-3,1.49,7.77,7.77,0,0,0-1,4.4,7.54,7.54,0,0,0,1,4.33,3.46,3.46,0,0,0,3,1.46,6,6,0,0,0,1.92-.33,6.81,6.81,0,0,0,1.82-.88h.1v1.33a5.59,5.59,0,0,1-1.74.79,7.66,7.66,0,0,1-2.18.31A4.77,4.77,0,0,1,178.51,163.13Z" transform="translate(1.5)"/><path class="a" d="M192.42,164a4.92,4.92,0,0,1-1.82-2.37A10,10,0,0,1,190,158a10.3,10.3,0,0,1,.67-3.88,5.26,5.26,0,0,1,2-2.47,5.46,5.46,0,0,1,3.1-.85,5.21,5.21,0,0,1,3,.82,5,5,0,0,1,1.82,2.36,10.13,10.13,0,0,1,.61,3.7,10.24,10.24,0,0,1-.66,3.87,5.51,5.51,0,0,1-8.07,2.45Zm6.19-1.8a9.3,9.3,0,0,0,0-8.81,3.61,3.61,0,0,0-3-1.47,3.67,3.67,0,0,0-3.05,1.45,9.39,9.39,0,0,0,0,8.83,3.68,3.68,0,0,0,3.08,1.45,3.6,3.6,0,0,0,3-1.44Z" transform="translate(1.5)"/><path class="a" d="M218.68,164.58h-1.4l-.9-8.51-.19-2.94-1,2.84-2.7,6.72h-1.24L208.54,156l-1.07-3-.19,3-.86,8.53h-1.31L206.57,151h1.27l3.54,8.88.49,1.23.47-1.2,3.54-8.91h1.26Z" transform="translate(1.5)"/><path class="a" d="M229.93,151.44a3.55,3.55,0,0,1,1.63,1.31,3.66,3.66,0,0,1,.61,2.18,4,4,0,0,1-2.28,3.7,5.31,5.31,0,0,1-2.38.53h-2.43v5.42h-1.33V151h3.86A6,6,0,0,1,229.93,151.44Zm-.05,5.82a2.61,2.61,0,0,0,.89-2.16q0-2.91-3.44-2.91h-2.25V158h2.33a3.78,3.78,0,0,0,2.47-.74Z" transform="translate(1.5)"/><path class="a" d="M243.21,160.17h-5.44l-1.64,4.41h-1.36L239.89,151h1.25l5.13,13.57h-1.39Zm-.4-1.11-1.63-4.29-.72-2.11-.69,2.11-1.59,4.29Z" transform="translate(1.5)"/><path class="a" d="M259.47,151v13.57h-1.25l-6.13-10-.48-.85-.31-.56.08,2v9.42h-1.32V151h1.27l6,9.8.91,1.65c0-.45-.06-1.21-.12-2.27V151Z" transform="translate(1.5)"/><path class="a" d="M269.09,159.46v5.12h-1.32v-5.14L263.36,151h1.49l3.13,6.12.52,1.12.51-1.12,3.13-6.12h1.47Z" transform="translate(1.5)"/><path class="a" d="M63.67,210.68a3.24,3.24,0,0,0,0,.88,2.16,2.16,0,0,0,.76,1.07,5.26,5.26,0,0,0,1.21.71,3.78,3.78,0,0,0,1.15.27,3,3,0,0,0,1-.11,2.08,2.08,0,0,0,.76-.44,1.87,1.87,0,0,0,.5-.71,3.26,3.26,0,0,0,.23-.75,1.84,1.84,0,0,0,0-.81,3.61,3.61,0,0,0-.4-1,11.45,11.45,0,0,0-.9-1.29l-.83-1.07a10.5,10.5,0,0,1-.93-1.45,4.88,4.88,0,0,1-.44-1.23,2.8,2.8,0,0,1,0-1.08,4.4,4.4,0,0,1,.32-1.07,3.44,3.44,0,0,1,.94-1.35,3.5,3.5,0,0,1,1.36-.72,4.59,4.59,0,0,1,1.65-.12,6.49,6.49,0,0,1,1.78.46,9.2,9.2,0,0,1,1.22.6,4.44,4.44,0,0,1,.93.68.83.83,0,0,1,.23.3,1,1,0,0,1,0,.65,12,12,0,0,1-.43,1.32q-.25.69-.51,1.29l-.73-.26c.1-.56.18-1,.22-1.33a2.89,2.89,0,0,0,0-.83,1.43,1.43,0,0,0-.44-.85,3.88,3.88,0,0,0-1.27-.75,3,3,0,0,0-2-.18,2,2,0,0,0-1.33,1.25,2.53,2.53,0,0,0-.21.76,1.9,1.9,0,0,0,.06.75,3.67,3.67,0,0,0,.36.84,8.3,8.3,0,0,0,.67,1l.84,1.14c.36.51.69,1,1,1.57A5.41,5.41,0,0,1,71,210.1a3.15,3.15,0,0,1,.11,1.1,4.31,4.31,0,0,1-.3,1.12,3.75,3.75,0,0,1-.91,1.35,3.56,3.56,0,0,1-1.31.81,4.39,4.39,0,0,1-1.65.21,6.16,6.16,0,0,1-1.89-.46,11.57,11.57,0,0,1-1.36-.69,5.52,5.52,0,0,1-1.2-.95,1.14,1.14,0,0,1-.35-.56,1.69,1.69,0,0,1,.09-.77q.08-.3.18-.6c.07-.22.15-.45.24-.67s.16-.43.22-.63a5.27,5.27,0,0,1,.19-.51l.8.26A11.81,11.81,0,0,0,63.67,210.68Z" transform="translate(1.5)"/><path class="a" d="M80.57,218.61c.45.14.84.24,1.17.31a2.13,2.13,0,0,0,.94,0,2.24,2.24,0,0,0,.9-.59,10,10,0,0,0,1-1.33l.54.37v.17c-.1.25-.2.5-.32.77a7.73,7.73,0,0,1-.39.76c-.14.24-.28.47-.42.67a2.32,2.32,0,0,1-.4.48.33.33,0,0,1-.27.07h-.25l-8.4-2.6a.24.24,0,0,1-.16-.18.55.55,0,0,1,.14-.52.27.27,0,0,1,.24-.09,3.69,3.69,0,0,1,.46.08,1.69,1.69,0,0,0,.45,0,.85.85,0,0,0,.38-.09.51.51,0,0,0,.24-.32l3.3-10.67a.45.45,0,0,0,0-.39,1.16,1.16,0,0,0-.26-.28,2.32,2.32,0,0,0-.41-.22l-.43-.22a.26.26,0,0,1-.14-.21.71.71,0,0,1,0-.29.77.77,0,0,1,.14-.25.22.22,0,0,1,.23,0,2.55,2.55,0,0,0,.53.18l1.2.37c.51.16,1.08.34,1.71.56l5.09,1.52c.24.08.27.29.08.63a4.67,4.67,0,0,0-.33.72c-.1.25-.21.51-.3.76s-.16.48-.23.69l-.18.53a2.28,2.28,0,0,1-.51-.21.21.21,0,0,1-.09-.19c0-.4.08-.76.09-1.07a2.33,2.33,0,0,0-.09-.83,1.29,1.29,0,0,0-.43-.62,2.72,2.72,0,0,0-.94-.45c-.72-.23-1.27-.38-1.65-.48l-.75-.15a.39.39,0,0,0-.34.16,1.7,1.7,0,0,0-.22.52c-.24.75-.45,1.46-.65,2.12s-.4,1.38-.62,2.13q-.1.35.15.42l1.63.48a2.06,2.06,0,0,0,.78.12.89.89,0,0,0,.52-.19,1.72,1.72,0,0,0,.4-.49l.43-.75a1.15,1.15,0,0,1,.37,0,1.08,1.08,0,0,1,.35.1c-.27.73-.53,1.47-.76,2.21s-.45,1.49-.64,2.25a2.53,2.53,0,0,1-.36-.12,1.09,1.09,0,0,1-.33-.19,6.82,6.82,0,0,1,.08-.87,1.67,1.67,0,0,0,0-.63.77.77,0,0,0-.3-.45,1.77,1.77,0,0,0-.69-.33l-1.7-.53c-.17,0-.29,0-.36.26l-1.37,4.38a1.08,1.08,0,0,0,.27,1.19A4.5,4.5,0,0,0,80.57,218.61Z" transform="translate(1.5)"/><path class="a" d="M98.83,209.31l1.56,13.47a1.06,1.06,0,0,0,.36.37,3,3,0,0,0,.9.42.23.23,0,0,1,.2.19.65.65,0,0,1,0,.34.73.73,0,0,1-.14.31.25.25,0,0,1-.26.09l-.48-.1-.66-.16-.71-.16-.62-.14-1.19-.24-1.17-.24a.25.25,0,0,1-.16-.14.53.53,0,0,1,0-.25.59.59,0,0,1,.07-.26.45.45,0,0,1,.2-.16,4.72,4.72,0,0,1,.53-.18l.56-.18c.17-.06.32-.13.46-.19s.2-.11.21-.15l-.37-3.85L94,217.22l-2.12,3.6s0,.11.15.19.3.2.46.29l.61.3a4.49,4.49,0,0,0,.61.23.25.25,0,0,1,.19.2.65.65,0,0,1,0,.34.89.89,0,0,1-.15.31.26.26,0,0,1-.26.1l-.48-.1-.66-.15-.71-.17-.61-.13L89.86,222l-1.15-.24a.25.25,0,0,1-.16-.14.57.57,0,0,1,0-.26.84.84,0,0,1,.08-.27.45.45,0,0,1,.2-.16c.16-.07.34-.13.54-.2l.57-.17a2.51,2.51,0,0,0,.46-.16c.13-.06.21-.11.23-.16l7.13-11.16Zm-4.54,7.32,3.7.8-.51-5.92c0-.06,0-.09-.09-.07s-.08.05-.13.12Z" transform="translate(1.5)"/><path class="a" d="M112.05,214.13a1.36,1.36,0,0,0-.27-1.15,1.72,1.72,0,0,0-1.09-.49,5.79,5.79,0,0,0-.83-.06,1.46,1.46,0,0,0-.73.23,2.63,2.63,0,0,0-.71.74,10.2,10.2,0,0,0-.81,1.49l-.59-.28v-.17a3.37,3.37,0,0,1,.2-.82c.08-.29.17-.57.27-.85a8,8,0,0,1,.31-.76,2.33,2.33,0,0,1,.32-.55c0-.05.21-.08.53-.08a11.88,11.88,0,0,1,1.24.05l1.67.17c.61.07,1.25.14,1.9.23s1.21.17,1.8.27l1.59.28c.46.1.84.18,1.12.27s.44.16.47.22a4.85,4.85,0,0,1,.16.63c0,.26.07.52.09.81s0,.58,0,.88a5.89,5.89,0,0,1,0,.84q0,.14-.09.15l-.64.11a10.38,10.38,0,0,0-.38-1.65,2.55,2.55,0,0,0-.49-.9,1.29,1.29,0,0,0-.64-.41,5.84,5.84,0,0,0-.81-.17,1.85,1.85,0,0,0-1.2.17,1.27,1.27,0,0,0-.58,1l-1.38,10.19a.43.43,0,0,0,.11.39,1.05,1.05,0,0,0,.37.25,2.84,2.84,0,0,0,.49.17l.5.15a.24.24,0,0,1,.18.18.66.66,0,0,1,0,.28.62.62,0,0,1-.09.26.2.2,0,0,1-.2.09c-1.64-.28-3.3-.51-5-.68a.22.22,0,0,1-.18-.14.66.66,0,0,1,0-.28.64.64,0,0,1,.1-.26.26.26,0,0,1,.22-.13h1a1.23,1.23,0,0,0,.42-.14.46.46,0,0,0,.2-.35Z" transform="translate(1.5)"/><path class="a" d="M127.14,215.72a1.31,1.31,0,0,0-.34-1.12,1.76,1.76,0,0,0-1.13-.42,5.75,5.75,0,0,0-.83,0,1.41,1.41,0,0,0-.71.27,2.41,2.41,0,0,0-.66.79,10.74,10.74,0,0,0-.71,1.54l-.6-.24a.27.27,0,0,1-.06-.16,5.77,5.77,0,0,1,.15-.83c.06-.3.13-.58.21-.87s.16-.54.25-.78a2.55,2.55,0,0,1,.29-.57c0-.05.21-.09.52-.12s.74,0,1.24,0h1.68c.62,0,1.26.06,1.91.11l1.82.14c.6.06,1.13.11,1.6.18s.85.12,1.14.18.45.13.48.19a4.61,4.61,0,0,1,.2.63c.06.24.1.51.14.79s.08.58.1.88a5.89,5.89,0,0,1,0,.84c0,.09,0,.14-.07.15l-.64.16a10.09,10.09,0,0,0-.49-1.62,2.57,2.57,0,0,0-.55-.87,1.4,1.4,0,0,0-.66-.37,5.71,5.71,0,0,0-.83-.11,1.88,1.88,0,0,0-1.18.25,1.29,1.29,0,0,0-.5,1.06l-.69,10.26a.4.4,0,0,0,.14.38,1.14,1.14,0,0,0,.38.23,2.83,2.83,0,0,0,.5.13l.52.12a.26.26,0,0,1,.19.16.66.66,0,0,1,0,.28.64.64,0,0,1-.07.27.2.2,0,0,1-.2.1c-1.64-.16-3.32-.28-5-.33a.23.23,0,0,1-.19-.14.62.62,0,0,1,0-.27.5.5,0,0,1,.08-.27.26.26,0,0,1,.21-.14h.5a4.81,4.81,0,0,0,.53-.07,1,1,0,0,0,.41-.17.49.49,0,0,0,.18-.37Z" transform="translate(1.5)"/><path class="a" d="M141.16,226a1.07,1.07,0,0,0,.6,1.06,4.71,4.71,0,0,0,2,.33c.4,0,.81,0,1.21,0a1.77,1.77,0,0,0,.89-.31,2.31,2.31,0,0,0,.69-.83,9.25,9.25,0,0,0,.62-1.58l.62.21c.05,0,.07.07.07.15a4.14,4.14,0,0,1-.09.84q-.09.44-.15.84c-.06.27-.13.52-.2.76a2.9,2.9,0,0,1-.25.57.31.31,0,0,1-.23.14h-.26L138,228.1a.22.22,0,0,1-.2-.12.67.67,0,0,1-.06-.28.59.59,0,0,1,.07-.29.24.24,0,0,1,.2-.15l.46-.07a2.36,2.36,0,0,0,.45-.08.86.86,0,0,0,.33-.2.55.55,0,0,0,.14-.37l.08-11.17a.5.5,0,0,0-.13-.37,1.09,1.09,0,0,0-.33-.19,2.42,2.42,0,0,0-.45-.1l-.48-.08a.29.29,0,0,1-.2-.16.67.67,0,0,1-.06-.28.48.48,0,0,1,.07-.26.22.22,0,0,1,.2-.12c.85.05,1.66.07,2.4.07h2.12a.21.21,0,0,1,.2.13.58.58,0,0,1,.06.26.55.55,0,0,1-.07.28.24.24,0,0,1-.2.15l-.49.08a3.12,3.12,0,0,0-.44.09,1.09,1.09,0,0,0-.33.19.45.45,0,0,0-.14.36Z" transform="translate(1.5)"/><path class="a" d="M158.81,226.91a5.17,5.17,0,0,0,1.2-.12,1.85,1.85,0,0,0,.87-.38,2.22,2.22,0,0,0,.64-.87,9.13,9.13,0,0,0,.51-1.61l.63.16c.05,0,.07.06.08.15v.84a10.92,10.92,0,0,1-.25,1.62,3.19,3.19,0,0,1-.21.59.38.38,0,0,1-.23.16h-.25L153,228a.2.2,0,0,1-.21-.11.79.79,0,0,1-.08-.26.66.66,0,0,1,0-.28.26.26,0,0,1,.19-.16l.46-.1a2.18,2.18,0,0,0,.44-.11.87.87,0,0,0,.32-.22.48.48,0,0,0,.11-.38l-.65-11.15a.48.48,0,0,0-.15-.36.91.91,0,0,0-.34-.17,2.44,2.44,0,0,0-.46-.07h-.48a.26.26,0,0,1-.21-.14.6.6,0,0,1-.08-.29.66.66,0,0,1,0-.28.21.21,0,0,1,.19-.13,2.62,2.62,0,0,0,.56,0l1.25-.08,1.8-.08,5.3-.35c.25,0,.35.17.3.56s0,.52-.06.79,0,.54,0,.81v1.29a1.75,1.75,0,0,1-.56,0,.2.2,0,0,1-.14-.14,9.19,9.19,0,0,0-.29-1,2.26,2.26,0,0,0-.38-.74,1.17,1.17,0,0,0-.62-.43,3,3,0,0,0-1-.1c-.75.05-1.32.09-1.71.13a4.83,4.83,0,0,0-.76.13.36.36,0,0,0-.26.27,1.75,1.75,0,0,0,0,.56c0,.79.09,1.52.14,2.21s.1,1.43.16,2.21c0,.24.11.35.28.34l1.71-.12a2.44,2.44,0,0,0,.76-.15,1,1,0,0,0,.43-.37,1.62,1.62,0,0,0,.19-.6,7.08,7.08,0,0,1,.14-.85,1.14,1.14,0,0,1,.36-.1,1.15,1.15,0,0,1,.37,0c0,.78,0,1.56.06,2.33s.1,1.56.19,2.33a2.44,2.44,0,0,1-.76-.06c-.09-.32-.17-.6-.23-.84a1.6,1.6,0,0,0-.24-.59.81.81,0,0,0-.44-.31,2,2,0,0,0-.77-.07l-1.77.1c-.18,0-.26.14-.25.37l.25,4.58a1.09,1.09,0,0,0,.67,1A5,5,0,0,0,158.81,226.91Z" transform="translate(1.5)"/><path class="a" d="M177.41,229.68l-2.86-19.9,1.29-.18,2.87,19.89Z" transform="translate(1.5)"/><path class="a" d="M191.92,210.24l.31.64.49,1,3.88,7.32.52-11.88,1-.26,6.17,10.13-.2-8A7,7,0,0,0,204,208c-.07-.41-.06-.69-.09-.87a.45.45,0,0,0-.19-.33.78.78,0,0,0-.37-.09h-.48l-.48.05a.26.26,0,0,1-.23-.1.6.6,0,0,1-.13-.25.45.45,0,0,1,0-.28.22.22,0,0,1,.16-.16l4.12-1.09a.19.19,0,0,1,.22.06.6.6,0,0,1,.14.53.28.28,0,0,1-.15.2,3.69,3.69,0,0,1-.42.17,2.37,2.37,0,0,0-.35.19.87.87,0,0,0-.27.27,1.3,1.3,0,0,0-.17.44,2.23,2.23,0,0,0-.05.36V220l-1.09.29L198,210.39,197.5,222l-1.09.29L190.75,212l-.33-.59q-.1-.21-.18-.33l-.1-.18-.11-.13a1,1,0,0,0-.35-.31,1.24,1.24,0,0,0-.38-.09,1.41,1.41,0,0,0-.41,0h-.44a.25.25,0,0,1-.23-.1.6.6,0,0,1-.13-.25.61.61,0,0,1,0-.27.23.23,0,0,1,.16-.17l4.61-1.22a.21.21,0,0,1,.22.07.45.45,0,0,1,.14.24.66.66,0,0,1,0,.28.26.26,0,0,1-.15.2l-.45.2a4.11,4.11,0,0,0-.42.21.9.9,0,0,0-.27.28A.51.51,0,0,0,191.92,210.24Z" transform="translate(1.5)"/><path class="a" d="M215.57,201.13l8.82,10.29a1,1,0,0,0,.51.1,2.62,2.62,0,0,0,1-.15.26.26,0,0,1,.27,0,.77.77,0,0,1,.19.28.62.62,0,0,1,0,.33.22.22,0,0,1-.16.22l-.45.19-.63.24-.69.26-.58.23-1.13.47-1.11.45a.26.26,0,0,1-.21,0,.52.52,0,0,1-.18-.18.57.57,0,0,1-.08-.25.43.43,0,0,1,.07-.25,4.7,4.7,0,0,1,.34-.44l.36-.47c.11-.15.2-.28.28-.41a.45.45,0,0,0,.09-.25l-2.46-3-3.82,1.6.26,4.17c0,.05.08.07.24.07H217l.67-.09q.31-.06.63-.15a.23.23,0,0,1,.27.06.8.8,0,0,1,.2.28.78.78,0,0,1,.05.34.25.25,0,0,1-.16.23l-.45.18-.63.24-.69.26-.58.24-1.11.45-1.08.45a.28.28,0,0,1-.22,0,.55.55,0,0,1-.18-.19.5.5,0,0,1-.08-.27.34.34,0,0,1,.07-.24c.1-.15.21-.31.33-.47l.38-.46.3-.39a.44.44,0,0,0,.09-.27l-.33-13.23Zm.32,8.61,3.51-1.41-3.73-4.62h-.11a.25.25,0,0,0,0,.17Z" transform="translate(1.5)"/><path class="a" d="M96.34,192.34a1,1,0,0,1,0-1.23.87.87,0,0,1,.63-.23.83.83,0,0,1,.6.22.8.8,0,0,1,.23.6.87.87,0,0,1-.24.63.9.9,0,0,1-.63.22A.82.82,0,0,1,96.34,192.34Z" transform="translate(1.5)"/><path class="a" d="M111.71,193.83v.86h-5.34v-9.88h5.26v.86h-4.3v3.46H111l-.08.82h-3.59v3.88Z" transform="translate(1.5)"/><path class="a" d="M115.82,194.61a4.15,4.15,0,0,1-1.28-.68v-1.06h.13a9.6,9.6,0,0,0,1.49.86,3.66,3.66,0,0,0,1.5.31,2.64,2.64,0,0,0,1.11-.21,1.66,1.66,0,0,0,1-1.63,1.62,1.62,0,0,0-.22-.86,2.14,2.14,0,0,0-.67-.67,7.37,7.37,0,0,0-1.18-.62l-.37-.15a10.91,10.91,0,0,1-1.34-.63,2.47,2.47,0,0,1-.85-.79,2.08,2.08,0,0,1-.35-1.26,2.58,2.58,0,0,1,.35-1.36,2.42,2.42,0,0,1,1-.93,3.5,3.5,0,0,1,1.59-.34,5,5,0,0,1,1.33.18,4.66,4.66,0,0,1,1.24.52l-.29.94h0a4.72,4.72,0,0,0-2.44-.8,2,2,0,0,0-1,.23,1.44,1.44,0,0,0-.6.62,2,2,0,0,0-.18.82,1.36,1.36,0,0,0,.2.76,1.78,1.78,0,0,0,.62.57c.41.23.82.44,1.25.63l.21.1c.6.28,1.08.53,1.43.74a2.84,2.84,0,0,1,.9.86,2.12,2.12,0,0,1,.37,1.29,2.64,2.64,0,0,1-.39,1.42,2.76,2.76,0,0,1-1.14,1,4.08,4.08,0,0,1-1.75.37A5,5,0,0,1,115.82,194.61Z" transform="translate(1.5)"/><path class="a" d="M129.53,185.67h-2.92v9h-1v-9h-3v-.86h6.94Z" transform="translate(1.5)"/><path class="a" d="M136.82,185.25a4.18,4.18,0,0,1,1.8,1.5,4.76,4.76,0,0,1,.74,2.77,6.13,6.13,0,0,1-.66,3,3.91,3.91,0,0,1-1.67,1.65,4.85,4.85,0,0,1-2.15.5h-2.66v-9.88h2.5A5.43,5.43,0,0,1,136.82,185.25Zm.49,7.68c.68-.59,1-1.69,1-3.29a4.39,4.39,0,0,0-.56-2.38,3.13,3.13,0,0,0-1.43-1.24,5,5,0,0,0-1.83-.35h-1.32v8.16h1.61a3.66,3.66,0,0,0,2.53-.9Z" transform="translate(1.5)"/><path class="a" d="M153,193.83v.86h-6.1V194a18.38,18.38,0,0,0,1.78-1.75,16.76,16.76,0,0,0,1.88-2.47,4.36,4.36,0,0,0,.82-2.23,2,2,0,0,0-.21-.89,1.51,1.51,0,0,0-.6-.65,2,2,0,0,0-1-.24,3,3,0,0,0-1.29.29,8,8,0,0,0-1.28.78h0v-1a4.16,4.16,0,0,1,1.17-.68,3.78,3.78,0,0,1,1.45-.28,3.41,3.41,0,0,1,1.54.32,2.26,2.26,0,0,1,.94.9,2.57,2.57,0,0,1,.33,1.3,4.55,4.55,0,0,1-.71,2.24,14.09,14.09,0,0,1-1.64,2.27,23.63,23.63,0,0,1-1.78,1.83Z" transform="translate(1.5)"/><path class="a" d="M156.59,193.59a6.76,6.76,0,0,1-.78-3.56,7.1,7.1,0,0,1,.83-3.73,2.73,2.73,0,0,1,2.51-1.33,2.54,2.54,0,0,1,2.35,1.27,7,7,0,0,1,.77,3.57,7.1,7.1,0,0,1-.83,3.73,2.75,2.75,0,0,1-2.51,1.34A2.53,2.53,0,0,1,156.59,193.59Zm4.12-.54a6.6,6.6,0,0,0,.55-3.1,6.9,6.9,0,0,0-.56-3.14,1.78,1.78,0,0,0-1.66-1,1.81,1.81,0,0,0-1.67,1,9.19,9.19,0,0,0,0,6.25,1.78,1.78,0,0,0,1.68,1,1.75,1.75,0,0,0,1.66-1Z" transform="translate(1.5)"/><path class="a" d="M171.21,193.84v.85h-5.65v-.85h2.5V186l-2.54,2h-.11v-1.07l2.69-2.11h.9v9Z" transform="translate(1.5)"/><path class="a" d="M179.17,190.51a2.74,2.74,0,0,1,.57,1.77,2.27,2.27,0,0,1-.4,1.31,2.77,2.77,0,0,1-1.15.94,4.08,4.08,0,0,1-1.72.35,5.08,5.08,0,0,1-1.64-.27,3.1,3.1,0,0,1-1.17-.63l.24-.87h0a5.38,5.38,0,0,0,1.24.69,3.72,3.72,0,0,0,1.32.24,2.53,2.53,0,0,0,1.64-.49,1.7,1.7,0,0,0,.61-1.38,2,2,0,0,0-.28-1,1.8,1.8,0,0,0-.8-.72,3,3,0,0,0-1.28-.26H175v-.78l.65-.06h.63a2.61,2.61,0,0,0,1.43-.6,1.54,1.54,0,0,0,.55-1.25,1.77,1.77,0,0,0-.2-.82,1.62,1.62,0,0,0-.61-.61,2,2,0,0,0-1-.23,3.09,3.09,0,0,0-1.12.21,6,6,0,0,0-1.11.61h-.05v-.9a3.49,3.49,0,0,1,1-.55,4,4,0,0,1,1.28-.21,3.5,3.5,0,0,1,1.53.32,2.32,2.32,0,0,1,.95.86,2.46,2.46,0,0,1,.32,1.21,2,2,0,0,1-.49,1.38,3,3,0,0,1-1.25.83A3,3,0,0,1,179.17,190.51Z" transform="translate(1.5)"/><path class="a" d="M188,192.34a1,1,0,0,1,0-1.23.87.87,0,0,1,.63-.23.83.83,0,0,1,.6.22.8.8,0,0,1,.23.6.87.87,0,0,1-.24.63.9.9,0,0,1-.63.22A.82.82,0,0,1,188,192.34Z" transform="translate(1.5)"/><path class="b" d="M120.54,34.67a16.31,16.31,0,0,0,.8-8.1A36,36,0,0,0,112.59,8c-.25-.3-.5-.59-.76-.88l-.21.13a7.37,7.37,0,0,0,.07,1.24,48.55,48.55,0,0,0,2.44,9.18q2.53,7.63,5.1,15.24a9.13,9.13,0,0,1,.25,1l-.22.18c-3.31-2.29-6.63-4.57-9.93-6.87a1.23,1.23,0,0,1-.3-.7,40.61,40.61,0,0,0-.57-4.11A55.63,55.63,0,0,0,98.39,1.9c-.47-.61-1-1.16-1.68-1.9a6.73,6.73,0,0,0,0,1.1c.29,1.53.65,3.05,1.09,4.54a107.75,107.75,0,0,0,8.44,18.6c.13.23.26.45.38.68C99.05,19.22,92.16,12.78,85,6.65a63.48,63.48,0,0,0,13.49,18H93.75a89.22,89.22,0,0,0-15.15.7c-1.37.21-2.7.62-4,.94v.3c.39.13.78.28,1.18.39a43.45,43.45,0,0,0,10,1.59,49.72,49.72,0,0,0,15.24-1,1.37,1.37,0,0,1,1,.24c3.16,2.28,6.31,4.59,9.46,6.89.19.14.4.27.69.47-.34.07-.56.14-.78.16-4,.42-7.92.77-11.87,1.25-3.37.42-6.72,1-10.07,1.52a15,15,0,0,0-2.35.77c.11.16.13.21.17.23l.56.2a37,37,0,0,0,15.61,1.4,21.34,21.34,0,0,0,10.86-4,.59.59,0,0,1,.53-.06c2.29,1.15,4.57,2.31,6.88,3.49-.14,0-.29.13-.45.18a16.24,16.24,0,0,0-9.19,7,1.26,1.26,0,0,1-.83.49c-1.88.17-3.77.24-5.65.42-2.1.2-4.2.48-6.29.75a6.14,6.14,0,0,0-1.19.39v.2c2,.45,3.91,1,5.88,1.35s4,.68,6,1a16.33,16.33,0,0,0,9.9,19,15.93,15.93,0,0,0,13-.54,16.31,16.31,0,0,0,8.5-10c2.8,7.37,9.4,11.22,15.76,10.85,8.88-.51,13.9-5.6,15.82-14l10.89,1.52.12-.37c-1-.58-1.88-1.23-2.88-1.71-2.5-1.18-5-2.29-7.57-3.41a1.14,1.14,0,0,1-.77-1,16,16,0,0,0-10.2-12.44c-.43-.18-.86-.32-1.43-.53.7-.38,1.26-.72,1.85-1a.82.82,0,0,1,.74.13,18.45,18.45,0,0,0,7.38,4.56,36.84,36.84,0,0,0,15.35,1.77c1.56-.13,3.1-.45,4.65-.69v-.27a13,13,0,0,0-1.59-.77,51.35,51.35,0,0,0-5-1.51c-5.55-1.22-11.13-2.34-16.69-3.51-.92-.19-1.82-.45-2.84-.7a1.66,1.66,0,0,1,.3-.22c3.76-1.63,7.52-3.27,11.29-4.88a1.39,1.39,0,0,1,.9.09c1.31.52,2.56,1.21,3.9,1.61a56.06,56.06,0,0,0,20.49,2c1.51-.11,3-.43,4.51-.65V35c-4-1.92-8.39-2.46-12.74-2.94s-8.79-.77-13.14-1.13c9.83-3.39,20.07-5.61,30.17-8.32-9-1.34-17.81-.3-26.68,2,.22-.34.36-.54.48-.75,2.31-3.85,4.67-7.65,6.88-11.55a33.73,33.73,0,0,0,3.47-8.1c.13-.48.18-1,.3-1.67-.38.3-.58.45-.76.61a43.64,43.64,0,0,0-7,8.4,48.22,48.22,0,0,0-6.71,13.63,1.24,1.24,0,0,1-.7.65c-3.57,1.49-7.16,2.94-10.74,4.41l-.68.26c.15-.34.22-.56.32-.76,1.48-3.25,3-6.48,4.44-9.76,1.49-3.46,2.88-7,4.26-10.47A13.73,13.73,0,0,0,178,7.22l-.2-.08c-.34.29-.69.57-1,.88a34.52,34.52,0,0,0-6.09,7.48c-3,4.9-5.21,10.06-4.71,16a.83.83,0,0,1-.35.57q-4.58,3.27-9.18,6.51a5,5,0,0,1-1,.38,1.41,1.41,0,0,1,0-.29c.05-.11.11-.22.17-.33a16.1,16.1,0,0,0,2-10.12,10.54,10.54,0,0,1-.27-2.74c.3-2.09.77-4.16,1.24-6.22.88-3.93,1.82-7.84,2.7-11.77a12.05,12.05,0,0,0,.37-4.35c-3.31,5.3-6.31,10.53-7.71,16.58a16.53,16.53,0,0,0-22.18-2.43,57.1,57.1,0,0,0-7.6-11.41,17.46,17.46,0,0,0,.64,3.58c1.11,3.48,2.28,6.93,3.46,10.38a1.57,1.57,0,0,1-.2,1.52A15.67,15.67,0,0,0,125.8,33.7c.34,1.55,1,3,1.49,4.62Z" transform="translate(1.5)"/><path class="a" d="M120.54,34.67l6.75,3.65c-.52-1.59-1.15-3.07-1.49-4.62a15.67,15.67,0,0,1,2.32-12.34,1.57,1.57,0,0,0,.2-1.52c-1.18-3.45-2.35-6.9-3.46-10.38a17.46,17.46,0,0,1-.64-3.58,57.1,57.1,0,0,1,7.6,11.41A16.53,16.53,0,0,1,154,19.72c1.4-6,4.4-11.28,7.77-16.54a12.05,12.05,0,0,1-.37,4.35c-.88,3.93-1.82,7.84-2.7,11.77-.47,2.06-.94,4.13-1.24,6.22a10.54,10.54,0,0,0,.27,2.74,16.1,16.1,0,0,1-2,10.12c-.06.11-.12.22-.17.33a1.41,1.41,0,0,0,0,.29,5,5,0,0,0,1-.38q4.6-3.24,9.18-6.51a.83.83,0,0,0,.35-.57c-.5-5.95,1.7-11.11,4.71-16a34.52,34.52,0,0,1,6.09-7.48c.32-.31.67-.59,1-.88l.2.08a13.73,13.73,0,0,1-.49,2.29c-1.38,3.51-2.77,7-4.26,10.47-1.42,3.28-3,6.51-4.44,9.76-.1.2-.17.42-.32.76l.68-.26c3.58-1.47,7.17-2.92,10.74-4.41a1.24,1.24,0,0,0,.7-.65,48.22,48.22,0,0,1,6.71-13.63,43.64,43.64,0,0,1,7-8.4c.18-.16.38-.31.76-.61-.12.68-.17,1.19-.3,1.67a33.73,33.73,0,0,1-3.47,8.1c-2.21,3.9-4.57,7.7-6.88,11.55-.12.21-.26.41-.48.75,8.87-2.31,17.68-3.35,26.68-2-10.1,2.71-20.34,4.93-30.17,8.32,4.35.36,8.76.64,13.14,1.13s8.72,1,12.74,2.94v.3c-1.5.22-3,.54-4.51.65a55.94,55.94,0,0,1-20.47-2c-1.34-.4-2.59-1.09-3.9-1.61a1.39,1.39,0,0,0-.9-.09c-3.77,1.61-7.53,3.25-11.29,4.88a1.66,1.66,0,0,0-.3.22c1,.25,1.92.51,2.84.7,5.56,1.17,11.14,2.29,16.69,3.51a51.35,51.35,0,0,1,5,1.51,13,13,0,0,1,1.59.77v.27c-1.55.24-3.09.56-4.65.69a36.84,36.84,0,0,1-15.35-1.77,18.45,18.45,0,0,1-7.38-4.56.82.82,0,0,0-.74-.13,20.75,20.75,0,0,0-1.85,1c.57.21,1,.35,1.43.53a16,16,0,0,1,10.2,12.44,1.14,1.14,0,0,0,.77,1c2.53,1.12,5.07,2.23,7.57,3.41,1,.48,1.92,1.13,2.88,1.71l-.12.37L173,57.32c-1.92,8.36-6.94,13.45-15.82,14-6.36.37-13-3.48-15.76-10.85a16.31,16.31,0,0,1-8.5,10,15.93,15.93,0,0,1-13,.54A16.33,16.33,0,0,1,110,51.86c-2-.34-4-.62-6-1s-3.92-.9-5.88-1.35v-.2a6.14,6.14,0,0,1,1.19-.39c2.09-.27,4.19-.55,6.29-.75,1.88-.18,3.77-.25,5.65-.42a1.26,1.26,0,0,0,.83-.49,16.24,16.24,0,0,1,9.19-7c.16,0,.31-.13.45-.18-2.31-1.18-4.59-2.34-6.88-3.49a.59.59,0,0,0-.53.06,21.34,21.34,0,0,1-10.86,4,37,37,0,0,1-15.61-1.4l-.56-.2s-.06-.07-.17-.23a14.12,14.12,0,0,1,2.3-.77c3.35-.55,6.7-1.1,10.07-1.52,4-.48,7.92-.83,11.87-1.25a4.69,4.69,0,0,0,.78-.16c-.29-.2-.5-.33-.69-.47-3.15-2.3-6.3-4.61-9.46-6.89a1.37,1.37,0,0,0-1-.24,49.72,49.72,0,0,1-15.24,1,43.45,43.45,0,0,1-10-1.59c-.4-.11-.79-.26-1.18-.39v-.3c1.35-.32,2.68-.73,4-.94a89.22,89.22,0,0,1,15.15-.7h4.74A63.41,63.41,0,0,1,85,6.65c7.16,6.13,14,12.57,21.62,18.27-.12-.23-.25-.45-.38-.68A107.75,107.75,0,0,1,97.8,5.64,44,44,0,0,1,96.72,1.1a6.73,6.73,0,0,1,0-1.1c.66.74,1.21,1.29,1.68,1.9a55.56,55.56,0,0,1,10.07,20.44,40.61,40.61,0,0,1,.57,4.11,1.23,1.23,0,0,0,.3.7c3.3,2.3,6.62,4.58,9.93,6.87l.22-.18c-.08-.32-.14-.64-.25-1l-5.1-15.24a48.55,48.55,0,0,1-2.44-9.18,7.37,7.37,0,0,0-.07-1.24l.21-.13c.26.29.51.58.76.88a35.85,35.85,0,0,1,8.75,18.6A16.23,16.23,0,0,1,120.54,34.67Zm36.55,34.86a14.56,14.56,0,0,0,14.55-14.48,14.13,14.13,0,0,0-14.16-14,14.59,14.59,0,0,0-14.6,14.54A14.13,14.13,0,0,0,157.09,69.53Zm-31.3-27.81a14.48,14.48,0,0,0-14.54,14.39,14,14,0,0,0,14,14h.21a14.48,14.48,0,0,0,14.47-14.39,14,14,0,0,0-14-14ZM141,44.23a14.47,14.47,0,0,0,14.48-14.14,14,14,0,0,0-13.82-14.18h-.18a14.51,14.51,0,0,0-14.65,14.15,14,14,0,0,0,13.83,14.17Z" transform="translate(1.5)"/><path class="b" d="M157.09,69.53a14.12,14.12,0,0,1-14.21-14A14.58,14.58,0,0,1,157.48,41a14.13,14.13,0,0,1,14.16,14A14.56,14.56,0,0,1,157.09,69.53Zm1.32-14.15-.19.13a12.9,12.9,0,0,0,1.73,5.4,1.1,1.1,0,0,1,0,.87c-.55,1.21-1.21,2.37-1.71,3.6a26.62,26.62,0,0,0-.83,2.9l.22.11a9.44,9.44,0,0,0,1-1,33.9,33.9,0,0,0,2.53-3.65,3.25,3.25,0,0,1,3-1.9,30.62,30.62,0,0,0,4.55-.94v-.27c-.38-.13-.74-.28-1.12-.39A13.42,13.42,0,0,0,162.5,60a.9.9,0,0,1-.91-.46C160.53,58.1,159.46,56.75,158.41,55.38Z" transform="translate(1.5)"/><path class="b" d="M125.79,41.72a14,14,0,0,1,14.14,13.86v.14a14.48,14.48,0,0,1-14.47,14.39,14,14,0,0,1-14.21-13.79v-.21A14.48,14.48,0,0,1,125.79,41.72ZM124,54.46a11.21,11.21,0,0,0-4.53,4.24,1.25,1.25,0,0,1-1.3.57c-1.63-.08-3.27,0-5,0a12,12,0,0,0,5.21,2.14,1,1,0,0,1,.83.69c.82,1.69,1.68,3.36,2.56,5a5.71,5.71,0,0,0,.84,1,1.72,1.72,0,0,0,0-.9c-.51-2-1-3.94-1.59-5.89a1.53,1.53,0,0,1,.22-1.58A17.83,17.83,0,0,0,124,54.46Z" transform="translate(1.5)"/><path class="b" d="M141,44.23a14,14,0,0,1-14.13-13.87v-.3a14.51,14.51,0,0,1,14.65-14.15,14,14,0,0,1,14,14v.18A14.47,14.47,0,0,1,141,44.23Zm-8.86-23.87-.23.1a12,12,0,0,0,.71,5.46,1,1,0,0,1-.2,1.06c-1.1,1.58-2.16,3.2-3.21,4.82a4.62,4.62,0,0,0-.38,1.08,4.19,4.19,0,0,0,1.39-.87c1.36-1.34,2.69-2.71,4.06-4a1.31,1.31,0,0,1,.82-.36c1.41.08,2.81.28,4.21.33s2.93,0,4.39-.06v-.29a10.16,10.16,0,0,0-1.76-.76c-2.11-.45-4.23-.85-6.35-1.23-.57-.1-1-.18-1.25-.82C133.72,23.27,132.9,21.83,132.14,20.36Z" transform="translate(1.5)"/><path class="a" d="M158.41,55.38c1.05,1.37,2.12,2.72,3.15,4.11a.9.9,0,0,0,.91.46,13.42,13.42,0,0,1,5.09.27c.38.11.74.26,1.12.39v.27a30.62,30.62,0,0,1-4.55.94,3.25,3.25,0,0,0-3,1.9,33.9,33.9,0,0,1-2.53,3.65,9.44,9.44,0,0,1-1,1l-.22-.11a26.62,26.62,0,0,1,.83-2.9c.5-1.23,1.16-2.39,1.71-3.6a1.1,1.1,0,0,0,0-.87,12.9,12.9,0,0,1-1.73-5.4Z" transform="translate(1.5)"/><path class="a" d="M124,54.46a18.13,18.13,0,0,1-2.73,5.23,1.53,1.53,0,0,0-.22,1.58c.57,1.95,1.08,3.92,1.59,5.89a1.72,1.72,0,0,1,0,.9,5.71,5.71,0,0,1-.84-1c-.88-1.66-1.74-3.33-2.56-5a1,1,0,0,0-.83-.69,12,12,0,0,1-5.21-2.14c1.74,0,3.38,0,5,0a1.25,1.25,0,0,0,1.3-.57A11.1,11.1,0,0,1,124,54.46Z" transform="translate(1.5)"/><path class="a" d="M132.14,20.36c.76,1.47,1.58,2.91,2.24,4.42.28.64.68.72,1.25.82,2.12.38,4.24.78,6.35,1.23a10.16,10.16,0,0,1,1.76.76v.29c-1.46,0-2.93.11-4.39.06s-2.8-.25-4.21-.33a1.31,1.31,0,0,0-.82.36c-1.37,1.33-2.7,2.7-4.06,4a4.19,4.19,0,0,1-1.39.87,4.62,4.62,0,0,1,.38-1.08c1-1.62,2.11-3.24,3.21-4.82a1,1,0,0,0,.2-1.06,12,12,0,0,1-.71-5.46Z" transform="translate(1.5)"/></svg>