<svg xmlns="http://www.w3.org/2000/svg" viewBox="0 0 136.15 72.14"><defs><style>.a{fill:none;}.b{fill:#485f7f;}</style></defs><path class="a" d="M46,34.67a16.31,16.31,0,0,0,.8-8.1A36,36,0,0,0,38,8c-.25-.3-.5-.59-.76-.88L37,7.25a7.37,7.37,0,0,0,.07,1.24,48.55,48.55,0,0,0,2.44,9.18q2.53,7.63,5.1,15.24a8.6,8.6,0,0,1,.25,1l-.22.18c-3.31-2.29-6.63-4.57-9.93-6.87a1.23,1.23,0,0,1-.3-.7,40.61,40.61,0,0,0-.57-4.11,55.57,55.57,0,0,0-10-20.51c-.47-.61-1-1.16-1.68-1.9a6.73,6.73,0,0,0,0,1.1c.29,1.53.65,3.05,1.09,4.54a107.75,107.75,0,0,0,8.44,18.6c.13.23.26.45.38.68C24.49,19.22,17.6,12.78,10.44,6.65a63.48,63.48,0,0,0,13.49,18H19.19A88.66,88.66,0,0,0,4,25.35c-1.37.21-2.7.62-4,.94v.3c.39.13.78.28,1.18.39a43.45,43.45,0,0,0,10,1.59,49.72,49.72,0,0,0,15.24-1,1.37,1.37,0,0,1,1,.24c3.16,2.28,6.31,4.59,9.46,6.89.19.14.4.27.69.47-.34.07-.56.14-.78.16-3.95.42-7.92.77-11.87,1.25-3.37.42-6.72,1-10.07,1.52a15,15,0,0,0-2.35.77c.11.16.13.21.17.23l.56.2a37,37,0,0,0,15.61,1.4,21.34,21.34,0,0,0,10.86-4,.59.59,0,0,1,.53-.06c2.29,1.15,4.57,2.31,6.88,3.49-.14,0-.29.13-.45.18a16.24,16.24,0,0,0-9.19,7,1.26,1.26,0,0,1-.83.49c-1.88.17-3.77.24-5.65.42-2.1.2-4.2.48-6.29.75a6.14,6.14,0,0,0-1.19.39v.2c2,.45,3.91,1,5.88,1.35s4,.68,6,1a16.33,16.33,0,0,0,9.9,19,15.93,15.93,0,0,0,13-.54,16.31,16.31,0,0,0,8.5-10c2.8,7.37,9.4,11.22,15.76,10.85,8.88-.51,13.9-5.6,15.82-14l10.89,1.52.12-.37c-1-.58-1.88-1.23-2.88-1.71-2.5-1.18-5-2.29-7.57-3.41a1.14,1.14,0,0,1-.77-1A16,16,0,0,0,88,39.9c-.43-.18-.86-.32-1.43-.53.7-.38,1.26-.72,1.85-1a.82.82,0,0,1,.74.13,18.45,18.45,0,0,0,7.38,4.56,36.84,36.84,0,0,0,15.35,1.77c1.56-.13,3.1-.45,4.65-.69v-.27A13,13,0,0,0,115,43.1a51.35,51.35,0,0,0-5-1.51c-5.55-1.22-11.13-2.34-16.69-3.51-.92-.19-1.82-.45-2.84-.7a1.66,1.66,0,0,1,.3-.22c3.76-1.63,7.52-3.27,11.29-4.88a1.39,1.39,0,0,1,.9.09c1.31.52,2.56,1.21,3.9,1.61a56.07,56.07,0,0,0,20.49,2c1.51-.11,3-.43,4.51-.65V35c-4-1.92-8.39-2.46-12.74-2.94s-8.79-.77-13.14-1.13c9.83-3.39,20.07-5.61,30.17-8.32-9-1.34-17.81-.3-26.68,2,.22-.34.36-.54.48-.75,2.31-3.85,4.67-7.65,6.88-11.55a33.73,33.73,0,0,0,3.47-8.1c.13-.48.18-1,.3-1.67-.38.3-.58.45-.76.61a43.64,43.64,0,0,0-7,8.4,48.22,48.22,0,0,0-6.71,13.63,1.24,1.24,0,0,1-.7.65c-3.57,1.49-7.16,2.94-10.74,4.41L94,30.5c.15-.34.22-.56.32-.76,1.48-3.25,3-6.48,4.44-9.76,1.49-3.46,2.88-7,4.26-10.47a13.73,13.73,0,0,0,.49-2.29l-.2-.08c-.34.29-.69.57-1,.88a34.52,34.52,0,0,0-6.09,7.48c-3,4.9-5.21,10.06-4.71,16a.83.83,0,0,1-.35.57Q86.59,35.34,82,38.58A5,5,0,0,1,81,39a1.41,1.41,0,0,1,0-.29c0-.11.11-.22.17-.33a16.1,16.1,0,0,0,2-10.12,10.54,10.54,0,0,1-.27-2.74c.3-2.09.77-4.16,1.24-6.22.88-3.93,1.82-7.84,2.7-11.77a12.05,12.05,0,0,0,.37-4.35c-3.31,5.3-6.31,10.53-7.71,16.58A16.53,16.53,0,0,0,57.3,17.29,57.39,57.39,0,0,0,49.7,5.88a17.46,17.46,0,0,0,.64,3.58c1.11,3.48,2.28,6.93,3.46,10.38a1.57,1.57,0,0,1-.2,1.52A15.68,15.68,0,0,0,51.24,33.7c.34,1.55,1,3,1.49,4.62Z"/><path class="b" d="M46,34.67l6.75,3.65c-.52-1.59-1.15-3.07-1.49-4.62a15.67,15.67,0,0,1,2.32-12.34,1.57,1.57,0,0,0,.2-1.52c-1.18-3.45-2.35-6.9-3.46-10.38a17.46,17.46,0,0,1-.64-3.58,57.39,57.39,0,0,1,7.6,11.41,16.53,16.53,0,0,1,22.18,2.43c1.4-6,4.4-11.28,7.77-16.54a12.05,12.05,0,0,1-.37,4.35C86,11.46,85,15.37,84.14,19.3c-.47,2.06-.94,4.13-1.24,6.22a10.54,10.54,0,0,0,.27,2.74,16.1,16.1,0,0,1-2,10.12c-.06.11-.12.22-.17.33A1.41,1.41,0,0,0,81,39a5,5,0,0,0,1-.38q4.6-3.24,9.18-6.51a.83.83,0,0,0,.35-.57c-.5-5.95,1.7-11.11,4.71-16a34.52,34.52,0,0,1,6.09-7.48c.32-.31.67-.59,1-.88l.2.08A13.83,13.83,0,0,1,103,9.55c-1.38,3.51-2.77,7-4.26,10.47-1.42,3.28-3,6.51-4.44,9.76-.1.2-.17.42-.32.76l.68-.26c3.58-1.47,7.17-2.92,10.74-4.41a1.24,1.24,0,0,0,.7-.65,48.22,48.22,0,0,1,6.71-13.63,43.64,43.64,0,0,1,7-8.4c.18-.16.38-.31.76-.61-.12.68-.17,1.19-.3,1.67a33.73,33.73,0,0,1-3.47,8.1c-2.21,3.9-4.57,7.7-6.88,11.55-.12.21-.26.41-.48.75,8.87-2.31,17.68-3.35,26.68-2C126.06,25.36,115.82,27.58,106,31c4.35.36,8.76.64,13.14,1.13s8.72,1,12.74,2.94v.3c-1.5.22-3,.54-4.51.65a55.94,55.94,0,0,1-20.47-2c-1.34-.4-2.59-1.09-3.9-1.61a1.39,1.39,0,0,0-.9-.09c-3.77,1.61-7.53,3.25-11.29,4.88a1.66,1.66,0,0,0-.3.22c1,.25,1.92.51,2.84.7,5.56,1.17,11.14,2.29,16.69,3.51a51.35,51.35,0,0,1,5,1.51,13,13,0,0,1,1.59.77v.27c-1.55.24-3.09.56-4.65.69A36.84,36.84,0,0,1,96.63,43.1a18.45,18.45,0,0,1-7.38-4.56.82.82,0,0,0-.74-.13c-.63.3-1.25.64-1.85,1,.57.21,1,.35,1.43.53a16,16,0,0,1,10.2,12.44,1.14,1.14,0,0,0,.77,1c2.53,1.12,5.07,2.23,7.57,3.41,1,.48,1.92,1.13,2.88,1.71l-.12.37-11-1.55c-1.92,8.36-6.94,13.45-15.82,14-6.36.37-13-3.48-15.76-10.85a16.31,16.31,0,0,1-8.5,10,15.93,15.93,0,0,1-13,.54,16.33,16.33,0,0,1-9.92-19.15c-2-.34-4-.62-6-1s-3.92-.9-5.88-1.35v-.2a6.14,6.14,0,0,1,1.19-.39c2.09-.27,4.19-.55,6.29-.75,1.88-.18,3.77-.25,5.65-.42a1.26,1.26,0,0,0,.83-.49,16.24,16.24,0,0,1,9.19-7c.16,0,.31-.13.45-.18-2.31-1.18-4.59-2.34-6.88-3.49a.59.59,0,0,0-.53.06,21.34,21.34,0,0,1-10.86,4,37,37,0,0,1-15.61-1.4l-.56-.2s-.06-.07-.17-.23a14.12,14.12,0,0,1,2.3-.77c3.35-.55,6.7-1.1,10.07-1.52,4-.48,7.92-.83,11.87-1.25a4.15,4.15,0,0,0,.78-.16c-.29-.2-.5-.33-.69-.47-3.15-2.3-6.3-4.61-9.46-6.89a1.37,1.37,0,0,0-1-.24,49.72,49.72,0,0,1-15.24,1,43.45,43.45,0,0,1-10-1.59c-.4-.11-.79-.26-1.18-.39v-.3c1.35-.32,2.68-.73,4-.94a89.22,89.22,0,0,1,15.15-.7h4.74a63.45,63.45,0,0,1-13.45-18c7.16,6.13,14,12.57,21.62,18.27-.12-.23-.25-.45-.38-.68a107.75,107.75,0,0,1-8.44-18.6A44,44,0,0,1,22.16,1.1a6.73,6.73,0,0,1,0-1.1c.66.74,1.21,1.29,1.68,1.9A55.56,55.56,0,0,1,33.91,22.34a40.61,40.61,0,0,1,.57,4.11,1.23,1.23,0,0,0,.3.7c3.3,2.3,6.62,4.58,9.93,6.87l.22-.18c-.08-.32-.14-.64-.25-1L39.58,17.6a48.55,48.55,0,0,1-2.44-9.18,7.37,7.37,0,0,0-.07-1.24l.21-.13c.26.29.51.58.76.88a35.85,35.85,0,0,1,8.75,18.6A16.22,16.22,0,0,1,46,34.67ZM82.53,69.53A14.56,14.56,0,0,0,97.08,55.05a14.13,14.13,0,0,0-14.16-14,14.59,14.59,0,0,0-14.6,14.54A14.13,14.13,0,0,0,82.53,69.53ZM51.23,41.72A14.48,14.48,0,0,0,36.69,56.11a14,14,0,0,0,14,14h.21A14.48,14.48,0,0,0,65.37,55.72a14,14,0,0,0-14-14Zm15.21,2.51A14.47,14.47,0,0,0,80.92,30.09,14,14,0,0,0,67.1,15.91h-.18A14.51,14.51,0,0,0,52.27,30.06,14,14,0,0,0,66.1,44.23h.34Z"/><path class="a" d="M82.53,69.53a14.12,14.12,0,0,1-14.21-14A14.58,14.58,0,0,1,82.92,41,14.13,14.13,0,0,1,97.08,55,14.56,14.56,0,0,1,82.53,69.53Zm1.32-14.15-.19.13a12.9,12.9,0,0,0,1.73,5.4,1.1,1.1,0,0,1,0,.87c-.55,1.21-1.21,2.37-1.71,3.6a26.62,26.62,0,0,0-.83,2.9l.22.11a9.44,9.44,0,0,0,1-1,33.9,33.9,0,0,0,2.53-3.65,3.25,3.25,0,0,1,3-1.9,30.62,30.62,0,0,0,4.55-.94v-.27c-.38-.13-.74-.28-1.12-.39A13.42,13.42,0,0,0,87.94,60a.9.9,0,0,1-.91-.46C86,58.1,84.9,56.75,83.85,55.38Z"/><path class="a" d="M51.23,41.72A14,14,0,0,1,65.37,55.58h0v.14A14.48,14.48,0,0,1,50.9,70.11,14,14,0,0,1,36.69,56.32h0v-.21A14.48,14.48,0,0,1,51.23,41.72ZM49.44,54.46a11.21,11.21,0,0,0-4.53,4.24,1.25,1.25,0,0,1-1.3.57c-1.63-.08-3.27,0-5,0a12,12,0,0,0,5.21,2.14,1,1,0,0,1,.83.69c.82,1.69,1.68,3.36,2.56,5a5.71,5.71,0,0,0,.84,1,1.72,1.72,0,0,0,0-.9c-.51-2-1-3.94-1.59-5.89a1.53,1.53,0,0,1,.22-1.58A17.83,17.83,0,0,0,49.44,54.46Z"/><path class="a" d="M66.44,44.23A14,14,0,0,1,52.31,30.36h0v-.3A14.52,14.52,0,0,1,67,15.91a14,14,0,0,1,14,14h0v.18A14.47,14.47,0,0,1,66.44,44.23ZM57.58,20.36l-.23.1a12,12,0,0,0,.71,5.46,1,1,0,0,1-.2,1.06c-1.1,1.58-2.16,3.2-3.21,4.82a4.62,4.62,0,0,0-.38,1.08A4.21,4.21,0,0,0,55.66,32c1.36-1.34,2.69-2.71,4.06-4a1.31,1.31,0,0,1,.82-.36c1.41.08,2.81.28,4.21.33s2.93,0,4.39-.06v-.29a10.16,10.16,0,0,0-1.76-.76c-2.11-.45-4.23-.85-6.35-1.23-.57-.1-1-.18-1.25-.82C59.16,23.27,58.34,21.83,57.58,20.36Z"/><path class="b" d="M83.85,55.38C84.9,56.75,86,58.1,87,59.49a.9.9,0,0,0,.91.46,13.42,13.42,0,0,1,5.09.27c.38.11.74.26,1.12.39v.27a30.62,30.62,0,0,1-4.55.94,3.25,3.25,0,0,0-3,1.9A34.25,34.25,0,0,1,84,67.37a9.44,9.44,0,0,1-1,1l-.22-.11a26.62,26.62,0,0,1,.83-2.9c.5-1.23,1.16-2.39,1.71-3.6a1.1,1.1,0,0,0,0-.87,12.9,12.9,0,0,1-1.73-5.4Z"/><path class="b" d="M49.44,54.46a18.13,18.13,0,0,1-2.73,5.23,1.53,1.53,0,0,0-.22,1.58c.57,1.95,1.08,3.92,1.59,5.89a1.72,1.72,0,0,1,0,.9,5.71,5.71,0,0,1-.84-1c-.88-1.66-1.74-3.33-2.56-5a1,1,0,0,0-.83-.69,12,12,0,0,1-5.21-2.14h5a1.25,1.25,0,0,0,1.3-.57A11,11,0,0,1,49.44,54.46Z"/><path class="b" d="M57.58,20.36c.76,1.47,1.58,2.91,2.24,4.42.28.64.68.72,1.25.82,2.12.38,4.24.78,6.35,1.23a10.16,10.16,0,0,1,1.76.76v.29c-1.46,0-2.93.11-4.39.06s-2.8-.25-4.21-.33a1.31,1.31,0,0,0-.82.36c-1.37,1.33-2.7,2.7-4.06,4a4.19,4.19,0,0,1-1.39.87,4.62,4.62,0,0,1,.38-1.08c1-1.62,2.11-3.24,3.21-4.82a1,1,0,0,0,.2-1.06,12,12,0,0,1-.71-5.46Z"/></svg>